<?xml version="1.0" encoding="utf-8"?>
<!-- Generator: Adobe Illustrator 21.1.0, SVG Export Plug-In . SVG Version: 6.00 Build 0)  -->
<svg version="1.1" id="Ebene_1" xmlns="http://www.w3.org/2000/svg" xmlns:xlink="http://www.w3.org/1999/xlink" x="0px" y="0px"
	 viewBox="0 0 1201 523" style="enable-background:new 0 0 1201 523;" xml:space="preserve">
<style type="text/css">
	.st0{fill:#A6A6A6;}
	.st1{fill:#B81F40;}
</style>
<title>BAG_Logo_RGB</title>
<path d="M88.6,487.3c0.1,4.4-0.9,8.8-2.8,12.7c-1.8,3.7-4.5,6.9-7.8,9.3c-3.8,2.9-8.1,5-12.7,6.2c-5.8,1.4-11.7,2-17.6,1.8H5v-98.2
	h37.9c5.8-0.1,11.6,0.2,17.3,0.8c3.8,0.6,7.5,1.7,10.9,3.5c3.5,1.7,6.4,4.3,8.3,7.6c4,7.4,3.6,16.4-1,23.5
	c-2.7,3.8-6.4,6.7-10.6,8.5v0.5c6.4,1.3,11.5,3.9,15.2,7.9C86.7,475.5,88.6,480.7,88.6,487.3z M56.3,446.9c0-1.7-0.4-3.4-1.2-4.9
	c-0.9-1.7-2.5-3-4.3-3.6c-2.2-0.8-4.5-1.2-6.9-1.1c-2.7-0.1-6.6-0.1-11.5-0.1H30V458h4c4,0,7.4-0.1,10.2-0.2c2.3,0,4.5-0.5,6.6-1.3
	c1.9-0.7,3.5-2.1,4.5-3.9C56,450.7,56.4,448.9,56.3,446.9z M62.4,486.9c0-3.1-0.6-5.5-1.8-7.2s-3.2-3-6.1-3.8
	c-2.7-0.7-5.4-1-8.1-0.9c-3.5,0-7.1-0.1-10.8-0.1h-5.5v24.5h1.8c7.1,0,12.1,0,15.2-0.1c2.9,0,5.8-0.6,8.5-1.7
	c2.3-0.8,4.2-2.3,5.4-4.4C62,491.2,62.5,489.1,62.4,486.9z"/>
<path d="M201.5,517.3h-30.8l-26.6-36h-11.7v36h-25.1v-98.2h42.3c5-0.1,10,0.3,14.9,1c4.1,0.7,8.1,2.1,11.7,4.3
	c3.6,2.1,6.6,5,8.8,8.5s3.3,7.9,3.3,13.1c0,7.3-1.7,13.2-5,17.7c-3.8,4.9-8.7,8.8-14.4,11.4L201.5,517.3z M162.2,449.3
	c0.1-2.2-0.5-4.4-1.5-6.3c-1.2-1.9-3-3.4-5.2-4.2c-1.9-0.7-3.9-1.2-6-1.3c-2.3-0.2-4.9-0.2-7.9-0.2h-9.1v26.4h7.8
	c3.4,0,6.8-0.2,10.1-0.6c2.5-0.3,4.8-1.2,6.8-2.7c1.6-1.2,2.9-2.7,3.8-4.5C161.9,453.8,162.3,451.5,162.2,449.3L162.2,449.3z"/>
<path d="M307.6,468.3c0,15.6-4.5,28.1-13.4,37.3c-8.9,9.2-21.3,13.8-37,13.8s-28-4.6-37-13.8s-13.4-21.6-13.4-37.3
	c0-15.8,4.5-28.3,13.4-37.4s21.3-13.7,37-13.7s28,4.6,37,13.7S307.7,452.5,307.6,468.3z M274.2,493.2c2.5-3.1,4.4-6.7,5.5-10.6
	c1.3-4.7,1.9-9.5,1.8-14.3c0.1-5.1-0.6-10.1-2-15c-1.1-3.6-2.9-7-5.3-10c-2.1-2.5-4.7-4.5-7.7-5.7c-5.8-2.4-12.3-2.4-18.1-0.1
	c-3,1.3-5.7,3.2-7.8,5.7c-2.5,3-4.3,6.5-5.4,10.2c-1.5,4.9-2.2,10-2.1,15.1c-0.1,5.1,0.6,10.1,2,14.9c1.1,3.7,2.9,7.1,5.3,10.1
	c2.1,2.5,4.7,4.5,7.7,5.7c2.9,1.2,6.1,1.9,9.3,1.9c3.2,0,6.3-0.6,9.3-1.9C269.6,497.7,272.2,495.7,274.2,493.2L274.2,493.2z"/>
<path d="M371,519.3c-6.8,0.1-13.6-1-20.1-3.2c-12.2-4.1-21.8-13.5-26.1-25.6c-2.5-7.1-3.8-14.6-3.6-22.1c-0.1-7.2,1.1-14.4,3.5-21.2
	c2.2-6.1,5.6-11.6,10.2-16.3c4.5-4.5,9.8-7.9,15.8-10.1c6.6-2.4,13.6-3.6,20.6-3.6c3.7,0,7.4,0.2,11.1,0.7c3.1,0.4,6.1,1,9.2,1.8
	c2.7,0.8,5.4,1.7,8,2.8c2.4,1,4.5,2,6.3,2.9v23.8H403c-1.2-1-2.8-2.3-4.6-3.7c-2-1.6-4.1-3-6.3-4.3c-2.5-1.4-5.1-2.6-7.8-3.5
	c-2.9-1-5.9-1.5-9-1.5c-3.4,0-6.9,0.6-10.1,1.7c-3.3,1.2-6.3,3.1-8.9,5.6c-2.8,2.8-4.9,6.2-6.3,9.9c-1.7,4.8-2.5,9.9-2.4,15
	c0,6.1,0.9,11.3,2.6,15.4c1.4,3.7,3.7,7,6.5,9.7c2.6,2.4,5.6,4.1,8.9,5.2c3.1,1,6.4,1.5,9.7,1.5c3.1,0,6.1-0.5,9.1-1.4
	c2.9-0.9,5.7-2.1,8.3-3.7c2.1-1.2,4.1-2.6,6-4.1c1.8-1.4,3.4-2.7,4.5-3.7h2.6v23.5c-2.5,1.1-4.8,2.1-7,3.1c-2.3,1-4.6,1.8-7,2.5
	c-3,0.9-6,1.6-9,2.1C378.8,519.1,374.9,519.3,371,519.3z"/>
<path d="M515.4,517.3h-31L455.2,478l-5.9,7.3v32h-25.2v-98.1h25.2v44.5l34.9-44.5h29.2l-38.2,45.4L515.4,517.3z"/>
<path d="M620.8,517.3h-25.2v-43.2h-37.2v43.2h-25.2v-98.2h25.2V455h37.2v-35.9h25.2V517.3z"/>
<path d="M741.5,517.3h-26l-6.8-19.8h-36.2l-6.8,19.8h-25.4l36.1-98.1h29L741.5,517.3z M702.6,479.5l-12-35.2l-12,35.2H702.6
	L702.6,479.5z"/>
<path d="M841.1,481.8c0,12.1-3.7,21.4-11,27.9c-7.3,6.5-18.2,9.7-32.5,9.7s-25.1-3.2-32.5-9.7c-7.3-6.5-11-15.7-11-27.8v-62.7h25.3
	v61.2c0,6.8,1.4,11.9,4.3,15.2c2.8,3.3,7.5,5,13.8,5s10.9-1.6,13.8-4.8c2.9-3.2,4.4-8.3,4.4-15.4v-61.2H841v62.6H841.1z"/>
<path d="M942.9,486.5c0,9.7-4.1,17.5-12.2,23.6c-8.2,6-19.2,9.1-33.3,9.1c-7.1,0.1-14.2-0.6-21.2-2.1c-5.8-1.3-11.4-3.2-16.9-5.4
	V488h2.8c5.2,4.2,11.1,7.4,17.5,9.6c6,2.2,12.3,3.3,18.6,3.4c2,0,4-0.2,6-0.4c2.1-0.2,4.1-0.6,6.1-1.3c1.8-0.7,3.4-1.7,4.8-3
	c1.3-1.4,2-3.3,1.9-5.3c0-2.2-1-4.2-2.7-5.6c-2.3-1.8-5.1-3-8-3.6c-3.7-0.9-7.6-1.7-11.7-2.5c-3.9-0.7-7.8-1.7-11.5-2.9
	c-8.2-2.7-14.1-6.3-17.8-10.9c-3.6-4.6-5.4-10.3-5.4-17.1c0-9.1,4.1-16.6,12.2-22.4c8.2-5.8,18.7-8.7,31.5-8.7
	c6.4,0,12.9,0.6,19.2,1.9c5.6,1.1,11,2.6,16.3,4.7v22.6h-2.7c-4.4-3.4-9.3-6.1-14.5-8c-5.6-2.1-11.5-3.2-17.5-3.2
	c-2.1,0-4.2,0.1-6.3,0.4s-4.1,0.8-6,1.6c-1.7,0.6-3.2,1.7-4.4,3c-1.2,1.2-1.8,2.9-1.8,4.6c-0.1,2.4,1,4.7,3,6
	c2,1.4,5.7,2.6,11.2,3.8l10.3,2.1c3.6,0.8,7.2,1.8,10.7,2.9c7.5,2.5,13,5.8,16.6,10.1C941.2,474.2,942.9,479.7,942.9,486.5z"/>
<path d="M1096.5,517.3h-26l-6.8-19.8h-36.2l-6.8,19.8h-25.4l36.1-98.1h29L1096.5,517.3z M1057.6,479.5l-12-35.2l-12,35.2H1057.6
	L1057.6,479.5z"/>
<path d="M1197,511.7c-5.7,2.1-11.5,3.8-17.4,5.1c-7.1,1.7-14.3,2.5-21.6,2.5c-16.6,0-29.6-4.5-39.1-13.6
	c-9.4-9.1-14.1-21.6-14.1-37.6c0-15.3,4.7-27.5,14.2-36.9c9.5-9.3,22.7-14,39.7-14c6.2,0,12.3,0.6,18.4,1.8c6.7,1.5,13.3,3.9,19.4,7
	v23h-2.8c-1.2-0.9-3-2.2-5.4-3.9c-2.2-1.6-4.5-3-6.8-4.3c-2.8-1.5-5.8-2.7-8.9-3.6c-3.5-1-7.1-1.5-10.8-1.5c-4.1,0-8.2,0.6-12.1,2
	c-3.6,1.3-7,3.4-9.8,6.1c-2.9,2.8-5.1,6.3-6.5,10c-1.7,4.5-2.5,9.3-2.4,14.1c0,10.9,2.9,19.2,8.6,24.9s14.2,8.6,25.4,8.6
	c1,0,2,0,3.2-0.1c1.2,0,2.2-0.1,3.2-0.2v-19.3h-19.5v-18.5h45.1L1197,511.7L1197,511.7z"/>
<polygon class="st0" points="778.9,362.3 422.6,362.3 422.6,6 600.8,6 600.8,87.4 504.1,87.4 504.1,281 697.4,281 697.4,184.2 
	778.9,184.2 "/>
<polygon class="st1" points="697.4,154.1 697.4,87.4 631,87.4 631,6 778.9,6 778.9,154.1 "/>
</svg>
