<?xml version="1.0" encoding="utf-8"?>
<!-- Generator: Adobe Illustrator 16.0.0, SVG Export Plug-In . SVG Version: 6.00 Build 0)  -->
<!DOCTYPE svg PUBLIC "-//W3C//DTD SVG 1.1//EN" "http://www.w3.org/Graphics/SVG/1.1/DTD/svg11.dtd">
<svg version="1.1" id="Ebene_1" xmlns="http://www.w3.org/2000/svg" xmlns:xlink="http://www.w3.org/1999/xlink" x="0px" y="0px"
	 width="110.781px" height="39.967px" viewBox="8.498 8.608 110.781 39.967" enable-background="new 8.498 8.608 110.781 39.967"
	 xml:space="preserve">
<g>
	<g>
		<rect id="SVGID_1_" x="8.498" y="8.608" fill="#FFFFFF" width="110.781" height="39.967"/>
	</g>
	<g>
		<defs>
			<rect id="SVGID_2_" x="8.498" y="8.608" width="110.781" height="39.967"/>
		</defs>
		<clipPath id="SVGID_3_">
			<use xlink:href="#SVGID_2_"  overflow="visible"/>
		</clipPath>
		<path clip-path="url(#SVGID_3_)" fill="#FF6600" d="M117.629,15.506c-0.021-0.665-0.189-1.167-0.51-1.507
			c-0.317-0.324-0.72-0.484-1.214-0.484c-0.493,0-0.898,0.162-1.215,0.484c-0.31,0.34-0.479,0.842-0.511,1.507H117.629z
			 M114.18,16.902c0,0.682,0.188,1.201,0.566,1.555c0.353,0.361,0.814,0.541,1.386,0.541c0.666,0,1.266-0.274,1.787-0.827
			l1.192,1.056c-0.837,0.919-1.818,1.373-2.948,1.361c-0.432,0-0.851-0.064-1.261-0.194c-0.206-0.07-0.404-0.165-0.6-0.285
			c-0.205-0.104-0.396-0.231-0.574-0.384c-0.348-0.314-0.627-0.754-0.843-1.32c-0.238-0.542-0.354-1.25-0.354-2.119
			c0-0.836,0.102-1.532,0.307-2.086c0.204-0.565,0.469-1.011,0.786-1.337c0.326-0.331,0.693-0.57,1.099-0.716
			c0.397-0.147,0.792-0.222,1.182-0.222c0.935,0.012,1.725,0.329,2.372,0.956c0.655,0.636,0.991,1.513,1.001,2.627v1.396h-5.098
			V16.902z M108.628,8.608h1.648v9.707c0,0.387,0.204,0.58,0.616,0.58h0.568v1.59h-0.732c-0.601,0-1.096-0.153-1.485-0.461
			c-0.41-0.313-0.615-0.839-0.615-1.578V8.608z M99.665,12.027h1.647v5.046c0,0.572,0.154,1.018,0.467,1.339
			c0.306,0.321,0.695,0.482,1.171,0.482c0.475,0,0.861-0.161,1.163-0.482c0.307-0.322,0.459-0.768,0.459-1.339v-5.046h1.647v8.458
			h-1.647v-0.904h-0.032c-0.544,0.671-1.252,1.006-2.125,1.006c-0.68-0.011-1.295-0.265-1.842-0.765
			c-0.595-0.487-0.897-1.208-0.908-2.164V12.027z M90.702,8.608h1.647v4.318h0.03c0.544-0.67,1.255-1.004,2.134-1.004
			c0.681,0,1.302,0.248,1.864,0.741c0.56,0.5,0.854,1.233,0.877,2.199v5.621h-1.646v-5.041c0-0.593-0.153-1.044-0.459-1.354
			c-0.301-0.314-0.688-0.472-1.163-0.472s-0.865,0.157-1.172,0.472c-0.312,0.311-0.466,0.763-0.466,1.354v5.041h-1.647V8.608z
			 M89.338,19.129c-0.357,0.421-0.78,0.766-1.266,1.029c-0.482,0.275-1.044,0.418-1.681,0.428c-0.969,0-1.816-0.338-2.549-1.018
			c-0.757-0.679-1.146-1.78-1.167-3.301c0.021-1.537,0.41-2.651,1.169-3.341c0.73-0.681,1.58-1.015,2.548-1.004
			c0.638,0.012,1.197,0.146,1.681,0.406c0.484,0.266,0.906,0.621,1.265,1.065l-1.216,1.114c-0.416-0.573-0.972-0.87-1.666-0.892
			c-1.397-0.021-2.109,0.861-2.131,2.65c0.021,1.777,0.731,2.653,2.131,2.627c0.694-0.012,1.25-0.307,1.666-0.884L89.338,19.129z
			 M75.534,17.903c0.668,0.729,1.532,1.094,2.59,1.094c0.476,0,0.861-0.096,1.163-0.286c0.3-0.189,0.45-0.457,0.45-0.8
			c0-0.305-0.09-0.517-0.27-0.636c-0.186-0.125-0.43-0.193-0.734-0.205l-1.453-0.131c-0.689-0.065-1.25-0.304-1.683-0.718
			c-0.441-0.402-0.669-0.967-0.681-1.689c0.012-0.87,0.311-1.523,0.893-1.958c0.568-0.435,1.292-0.653,2.165-0.653
			c0.378,0,0.718,0.025,1.02,0.073c0.3,0.055,0.578,0.13,0.843,0.229c0.505,0.211,0.956,0.496,1.358,0.853l-1.02,1.229
			c-0.316-0.236-0.65-0.432-1.005-0.585c-0.348-0.139-0.746-0.206-1.198-0.206c-0.519,0-0.876,0.095-1.082,0.285
			c-0.219,0.19-0.325,0.436-0.325,0.734c-0.011,0.191,0.071,0.357,0.245,0.499c0.156,0.158,0.438,0.259,0.836,0.302l1.358,0.107
			c0.854,0.064,1.472,0.332,1.851,0.801c0.352,0.457,0.528,1.037,0.528,1.74c-0.012,0.821-0.335,1.457-0.971,1.902
			c-0.632,0.457-1.439,0.691-2.423,0.702c-1.337,0-2.54-0.502-3.607-1.508L75.534,17.903z M66.323,8.608h1.648v4.318h0.03
			c0.543-0.67,1.253-1.004,2.133-1.004c0.681,0,1.303,0.248,1.866,0.741c0.559,0.5,0.851,1.233,0.876,2.199v5.621h-1.646v-5.041
			c0-0.593-0.152-1.044-0.459-1.354c-0.302-0.314-0.688-0.472-1.163-0.472c-0.476,0-0.865,0.157-1.17,0.472
			c-0.313,0.311-0.468,0.763-0.468,1.354v5.041h-1.648V8.608z M64.958,19.129c-0.357,0.421-0.779,0.766-1.264,1.029
			c-0.484,0.275-1.045,0.418-1.683,0.428c-0.967,0-1.815-0.338-2.547-1.018c-0.757-0.679-1.146-1.78-1.167-3.301
			c0.021-1.537,0.41-2.651,1.168-3.341c0.731-0.681,1.581-1.015,2.549-1.004c0.637,0.012,1.195,0.146,1.681,0.406
			c0.483,0.266,0.904,0.621,1.263,1.065l-1.216,1.114c-0.416-0.573-0.971-0.87-1.665-0.892c-1.4-0.021-2.11,0.861-2.131,2.65
			c0.021,1.777,0.73,2.653,2.131,2.627c0.695-0.012,1.25-0.307,1.666-0.884L64.958,19.129z M55.274,16.268
			c0-0.605-0.026-1.047-0.079-1.326c-0.052-0.269-0.159-0.501-0.322-0.704c-0.122-0.19-0.3-0.34-0.537-0.449
			c-0.226-0.115-0.487-0.171-0.788-0.171c-0.276,0-0.535,0.057-0.771,0.171c-0.228,0.109-0.41,0.259-0.552,0.449
			c-0.143,0.203-0.244,0.437-0.308,0.705c-0.063,0.278-0.095,0.714-0.095,1.309c0,0.59,0.032,1.021,0.095,1.293
			c0.063,0.277,0.166,0.523,0.308,0.737c0.142,0.164,0.324,0.308,0.552,0.433c0.236,0.12,0.495,0.181,0.771,0.181
			c0.3,0,0.563-0.061,0.788-0.181c0.237-0.125,0.415-0.27,0.537-0.433c0.163-0.214,0.271-0.459,0.322-0.737
			C55.248,17.271,55.274,16.846,55.274,16.268 M50.176,16.251c0-0.893,0.071-1.578,0.214-2.058c0.146-0.468,0.373-0.864,0.678-1.186
			c0.225-0.279,0.541-0.531,0.946-0.753c0.398-0.21,0.91-0.321,1.535-0.333c0.646,0.012,1.169,0.123,1.568,0.334
			c0.395,0.225,0.699,0.478,0.914,0.759c0.326,0.321,0.557,0.716,0.694,1.183c0.13,0.478,0.196,1.162,0.196,2.053
			c0,0.893-0.066,1.571-0.196,2.039c-0.138,0.466-0.368,0.872-0.694,1.214c-0.104,0.125-0.233,0.246-0.386,0.366
			c-0.138,0.136-0.313,0.253-0.528,0.352c-0.399,0.233-0.922,0.354-1.568,0.365c-0.625-0.011-1.137-0.132-1.535-0.365
			c-0.405-0.212-0.721-0.451-0.946-0.718c-0.305-0.342-0.53-0.748-0.678-1.214C50.247,17.822,50.176,17.143,50.176,16.251
			 M41.611,8.608h1.647v4.318h0.031c0.543-0.67,1.254-1.004,2.133-1.004c0.681,0,1.303,0.248,1.866,0.741
			c0.558,0.5,0.851,1.233,0.876,2.199v5.621h-1.646v-5.041c0-0.593-0.153-1.044-0.459-1.354c-0.301-0.314-0.688-0.472-1.163-0.472
			c-0.476,0-0.865,0.157-1.17,0.472c-0.312,0.311-0.467,0.763-0.467,1.354v5.041h-1.647L41.611,8.608L41.611,8.608z M32.648,8.608
			h1.647v4.318h0.031c0.542-0.67,1.253-1.004,2.133-1.004c0.681,0,1.303,0.248,1.866,0.741c0.558,0.5,0.85,1.233,0.877,2.199v5.621
			h-1.646v-5.041c0-0.593-0.154-1.044-0.46-1.354c-0.301-0.314-0.688-0.472-1.162-0.472c-0.475,0-0.865,0.157-1.171,0.472
			c-0.312,0.311-0.467,0.763-0.467,1.354v5.041h-1.647L32.648,8.608L32.648,8.608z M31.284,19.129
			c-0.357,0.421-0.78,0.766-1.264,1.029c-0.484,0.275-1.044,0.418-1.683,0.428c-0.967,0-1.815-0.338-2.547-1.018
			c-0.757-0.679-1.145-1.78-1.167-3.301c0.022-1.537,0.41-2.651,1.167-3.341c0.731-0.681,1.581-1.015,2.549-1.004
			c0.637,0.012,1.196,0.146,1.682,0.406c0.483,0.266,0.904,0.621,1.263,1.065l-1.216,1.114c-0.416-0.573-0.971-0.87-1.665-0.892
			c-1.4-0.021-2.111,0.861-2.132,2.65c0.021,1.777,0.73,2.653,2.131,2.627c0.695-0.012,1.25-0.307,1.666-0.884L31.284,19.129z
			 M21.201,16.902h-1.972c-0.958,0.021-1.431,0.364-1.42,1.022c0,0.29,0.124,0.534,0.371,0.736c0.236,0.225,0.629,0.336,1.176,0.336
			c0.688,0.011,1.175-0.074,1.458-0.253c0.258-0.181,0.387-0.589,0.387-1.227V16.902z M21.201,19.744H21.17
			c-0.152,0.286-0.389,0.497-0.709,0.633c-0.313,0.141-0.75,0.21-1.307,0.21c-0.913-0.011-1.617-0.26-2.11-0.749
			c-0.519-0.478-0.778-1.088-0.778-1.832c0-0.711,0.226-1.301,0.678-1.768c0.451-0.477,1.112-0.722,1.982-0.732h2.275v-0.897
			c0.011-0.75-0.548-1.116-1.677-1.094c-0.411,0-0.732,0.043-0.968,0.131c-0.247,0.104-0.441,0.281-0.583,0.526L16.68,13.15
			c0.625-0.84,1.548-1.249,2.766-1.228c1.029-0.011,1.851,0.19,2.465,0.604c0.615,0.423,0.928,1.15,0.938,2.183v5.775h-1.647
			L21.201,19.744L21.201,19.744z M8.498,8.608h7.345V10.3h-5.608v3.512h4.788V15.4h-4.788v5.084H8.498V8.608z"/>
	</g>
	<g>
		<defs>
			<rect id="SVGID_4_" x="8.498" y="8.608" width="110.781" height="39.967"/>
		</defs>
		<clipPath id="SVGID_5_">
			<use xlink:href="#SVGID_4_"  overflow="visible"/>
		</clipPath>
		<path clip-path="url(#SVGID_5_)" fill="#FF6600" d="M75.16,29.577c-0.39,0-0.688,0.069-0.893,0.204
			c-0.229,0.148-0.395,0.35-0.499,0.606c-0.101,0.256-0.167,0.534-0.197,0.836c-0.032,0.319-0.048,0.649-0.048,0.987
			c0,0.321,0.016,0.638,0.048,0.94c0.03,0.323,0.098,0.612,0.197,0.867c0.104,0.245,0.271,0.446,0.499,0.604
			c0.204,0.154,0.503,0.23,0.893,0.23c0.391,0,0.699-0.082,0.926-0.246c0.228-0.157,0.382-0.364,0.469-0.621
			c0.104-0.258,0.175-0.543,0.214-0.86c0.009-0.311,0.014-0.615,0.014-0.916c0-0.325-0.005-0.641-0.014-0.939
			c-0.039-0.299-0.109-0.579-0.214-0.835c-0.087-0.257-0.241-0.464-0.469-0.621C75.859,29.657,75.551,29.577,75.16,29.577
			 M76.781,35.568c-0.542,0.633-1.25,0.959-2.125,0.979c-0.494-0.011-0.919-0.114-1.271-0.316c-0.367-0.196-0.676-0.457-0.924-0.785
			c-0.228-0.265-0.377-0.627-0.449-1.083c-0.091-0.436-0.136-1.153-0.136-2.154c0-1.017,0.045-1.738,0.136-2.17
			c0.072-0.435,0.223-0.786,0.449-1.052c0.463-0.708,1.195-1.075,2.195-1.103c0.423,0,0.812,0.09,1.171,0.269
			c0.331,0.188,0.648,0.432,0.954,0.728v-4.311h1.649v11.876h-1.649V35.568z M62.913,27.987h1.647v0.896h0.031
			c0.542-0.666,1.255-0.999,2.134-0.999c0.679,0,1.302,0.247,1.864,0.741c0.558,0.5,0.851,1.233,0.877,2.2v5.62H67.82v-5.04
			c0-0.593-0.152-1.044-0.459-1.354c-0.302-0.316-0.69-0.475-1.163-0.475c-0.474,0-0.865,0.157-1.171,0.475
			c-0.313,0.311-0.467,0.762-0.467,1.354v5.04h-1.647V27.987z M53.95,27.987h1.648v5.046c0,0.572,0.154,1.02,0.466,1.34
			c0.306,0.322,0.695,0.482,1.171,0.482s0.862-0.16,1.163-0.482c0.306-0.32,0.458-0.768,0.458-1.34v-5.046h1.647v8.458h-1.647V35.54
			h-0.031c-0.542,0.673-1.251,1.008-2.125,1.008c-0.68-0.011-1.294-0.265-1.841-0.764c-0.595-0.488-0.897-1.21-0.909-2.163V27.987z
			 M39.671,27.987h1.651v0.896h0.032c0.561-0.666,1.295-0.999,2.208-0.999c0.586,0.012,1.059,0.112,1.417,0.303
			c0.354,0.211,0.676,0.479,0.97,0.807c0.663-0.75,1.551-1.119,2.664-1.109c0.7,0,1.341,0.247,1.923,0.741
			c0.575,0.5,0.874,1.233,0.896,2.2v5.62h-1.649v-5.04c0-0.593-0.158-1.044-0.473-1.354c-0.315-0.316-0.722-0.475-1.219-0.475
			c-0.498,0-0.905,0.157-1.227,0.475c-0.326,0.311-0.489,0.762-0.489,1.354v5.04h-1.646v-5.04c0-0.593-0.158-1.044-0.472-1.354
			c-0.319-0.316-0.728-0.475-1.223-0.475c-0.497,0-0.901,0.157-1.216,0.475c-0.331,0.311-0.496,0.762-0.496,1.354v5.04h-1.65
			L39.671,27.987L39.671,27.987z M34.699,25.414h1.648v2.574h1.199v1.297h-1.199v4.942c-0.012,0.431,0.183,0.64,0.584,0.629h0.615
			v1.59h-0.859c-0.578,0-1.051-0.185-1.418-0.554c-0.379-0.354-0.569-0.864-0.569-1.531v-5.076h-0.825v-1.297H34.7L34.699,25.414
			L34.699,25.414z M27.267,27.987h1.647v0.896h0.034c0.542-0.666,1.253-0.999,2.132-0.999c0.657,0.012,1.232,0.228,1.721,0.649
			l-1.199,1.469c-0.349-0.282-0.709-0.425-1.083-0.425c-0.421,0-0.782,0.143-1.083,0.425c-0.337,0.276-0.511,0.727-0.521,1.347
			v5.098h-1.647V27.987z M23.624,32.229c0-0.606-0.025-1.047-0.078-1.326c-0.053-0.267-0.161-0.5-0.322-0.703
			c-0.12-0.188-0.301-0.341-0.535-0.449c-0.228-0.117-0.489-0.173-0.788-0.173c-0.278,0-0.536,0.056-0.772,0.173
			c-0.226,0.108-0.41,0.261-0.552,0.449c-0.141,0.203-0.245,0.438-0.307,0.703c-0.064,0.279-0.096,0.715-0.096,1.31
			c0,0.591,0.031,1.021,0.096,1.294c0.062,0.277,0.166,0.523,0.307,0.736c0.142,0.163,0.326,0.31,0.552,0.432
			c0.237,0.122,0.494,0.183,0.772,0.183c0.299,0,0.562-0.061,0.788-0.183c0.234-0.122,0.415-0.269,0.535-0.432
			c0.163-0.213,0.271-0.459,0.322-0.736C23.598,33.232,23.624,32.807,23.624,32.229 M18.525,32.212c0-0.893,0.072-1.577,0.213-2.058
			c0.146-0.469,0.373-0.863,0.678-1.185c0.227-0.281,0.541-0.531,0.945-0.754c0.4-0.21,0.912-0.32,1.538-0.332
			c0.646,0.012,1.168,0.123,1.566,0.335c0.396,0.223,0.699,0.476,0.914,0.758c0.326,0.32,0.558,0.714,0.694,1.181
			c0.131,0.479,0.197,1.163,0.197,2.054c0,0.893-0.066,1.57-0.197,2.037c-0.137,0.468-0.368,0.873-0.693,1.217
			c-0.104,0.124-0.233,0.247-0.386,0.364c-0.137,0.138-0.312,0.254-0.529,0.353c-0.398,0.232-0.922,0.354-1.566,0.365
			c-0.625-0.011-1.138-0.133-1.538-0.365c-0.404-0.211-0.719-0.451-0.945-0.717c-0.305-0.344-0.531-0.749-0.678-1.217
			C18.598,33.782,18.525,33.104,18.525,32.212 M10.311,34.752h2.085c0.979,0,1.688-0.346,2.132-1.035
			c0.195-0.259,0.318-0.58,0.371-0.974c0.047-0.387,0.071-1.107,0.071-2.171c0-1.033-0.024-1.773-0.071-2.22
			c-0.063-0.446-0.213-0.81-0.45-1.086c-0.485-0.691-1.168-1.026-2.053-1.004h-2.085V34.752z M8.575,24.569h4.021
			c1.554,0.011,2.72,0.679,3.499,2.004c0.276,0.446,0.452,0.913,0.525,1.401c0.059,0.487,0.085,1.333,0.085,2.532
			c0,1.275-0.044,2.166-0.133,2.672c-0.042,0.255-0.105,0.482-0.189,0.685c-0.089,0.195-0.196,0.398-0.322,0.611
			c-0.336,0.559-0.805,1.021-1.403,1.386c-0.593,0.389-1.321,0.585-2.183,0.585h-3.9L8.575,24.569L8.575,24.569z"/>
	</g>
	<g>
		<defs>
			<rect id="SVGID_6_" x="8.498" y="8.608" width="110.781" height="39.967"/>
		</defs>
		<clipPath id="SVGID_7_">
			<use xlink:href="#SVGID_6_"  overflow="visible"/>
		</clipPath>
		<path clip-path="url(#SVGID_7_)" d="M119.278,46.19c0-0.494-0.28-0.803-0.868-0.93l-0.431-0.095
			c-0.347-0.071-0.472-0.228-0.472-0.48c0-0.327,0.242-0.549,0.613-0.549c0.288,0,0.529,0.1,0.817,0.24l0.188-0.389
			c-0.271-0.161-0.65-0.269-0.991-0.269c-0.678,0-1.154,0.422-1.154,1.022c0,0.464,0.287,0.805,0.823,0.918l0.403,0.088
			c0.37,0.08,0.534,0.246,0.534,0.548c0,0.355-0.261,0.577-0.657,0.577c-0.359,0-0.7-0.106-1.033-0.314l-0.193,0.388
			c0.333,0.208,0.782,0.336,1.193,0.336C118.781,47.283,119.278,46.842,119.278,46.19 M116.32,43.849h-0.813
			c0-0.442,0.063-0.967,0.063-0.967l-0.533,0.122c0,0-0.052,0.521-0.052,0.845h-0.426v0.395h0.426v2.29
			c0,0.335,0.084,0.549,0.313,0.663c0.123,0.061,0.253,0.095,0.424,0.095c0.229,0,0.41-0.048,0.572-0.136l-0.069-0.334
			c-0.093,0.047-0.177,0.065-0.32,0.065c-0.32,0-0.418-0.126-0.418-0.494v-2.149h0.679L116.32,43.849z M114.064,43.782
			c0,0-0.092-0.035-0.177-0.035c-0.332,0-0.68,0.216-0.913,0.557c0.02-0.279-0.104-0.541-0.104-0.541l-0.51,0.139
			c0,0,0.111,0.223,0.111,0.711v2.571h0.51v-2.088c0-0.275,0.039-0.376,0.188-0.53c0.15-0.154,0.348-0.24,0.542-0.24
			c0.053,0,0.109,0.013,0.144,0.025L114.064,43.782z M110.6,45.32h-1.392l0.705-2.249L110.6,45.32z M111.769,47.183l-1.481-4.594
			h-0.697l-1.494,4.594h0.541l0.432-1.413h1.67l0.424,1.413H111.769z M105.263,46.333c0,0-0.061,0.141-0.196,0.24
			c-0.209,0.154-0.358,0.214-0.625,0.214c-0.302,0-0.503-0.113-0.654-0.389c-0.104-0.193-0.129-0.479-0.129-0.868
			c0-0.47,0.053-0.711,0.21-0.966c0.136-0.229,0.353-0.35,0.605-0.35c0.384,0,0.627,0.114,0.789,0.35V46.333z M105.878,47.183
			c-0.073-0.193-0.099-0.502-0.099-1.077v-3.725l-0.511-0.087v1.399c0,0.241,0.007,0.516,0.007,0.516
			c-0.195-0.269-0.517-0.422-0.88-0.422c-0.234,0-0.417,0.062-0.625,0.207c-0.444,0.315-0.673,0.838-0.673,1.549
			c0,1.063,0.48,1.686,1.323,1.686c0.378,0,0.626-0.114,0.861-0.388c0.007,0.174,0.071,0.342,0.071,0.342H105.878z M102.132,47.183
			v-2.53c0-0.136-0.024-0.27-0.078-0.389c-0.131-0.294-0.443-0.488-0.796-0.488c-0.347,0-0.686,0.166-1.026,0.516
			c0-0.275-0.116-0.521-0.116-0.521l-0.495,0.14c0,0,0.124,0.229,0.124,0.703v2.571h0.497V44.7c0.234-0.257,0.638-0.471,0.898-0.471
			c0.15,0,0.288,0.054,0.358,0.142c0.092,0.113,0.118,0.2,0.118,0.556v2.257H102.132z M98.008,45.488l-0.02,0.872
			c-0.15,0.313-0.458,0.521-0.79,0.521c-0.371,0-0.56-0.214-0.56-0.608c0-0.51,0.294-0.797,1.115-0.797
			C97.845,45.475,97.922,45.481,98.008,45.488 M98.758,46.935c-0.241-0.134-0.274-0.273-0.261-0.816l0.026-1.099
			c0.006-0.301,0-0.557-0.073-0.736c-0.135-0.342-0.447-0.521-0.899-0.521c-0.469,0-0.933,0.153-1.363,0.447l0.255,0.376
			c0.209-0.194,0.672-0.396,1.036-0.396c0.203,0,0.335,0.06,0.438,0.182c0.092,0.106,0.105,0.228,0.105,0.522v0.232
			c0,0-0.092-0.007-0.229-0.007c-1.089,0-1.722,0.442-1.722,1.199c0,0.448,0.24,0.95,1.043,0.95c0.373,0,0.627-0.126,0.941-0.448
			c0.058,0.234,0.22,0.415,0.441,0.488L98.758,46.935z M93.733,46.19c0-0.494-0.279-0.803-0.866-0.93l-0.432-0.095
			c-0.346-0.071-0.472-0.228-0.472-0.48c0-0.327,0.243-0.549,0.614-0.549c0.288,0,0.528,0.1,0.815,0.24l0.188-0.389
			c-0.271-0.161-0.651-0.269-0.99-0.269c-0.681,0-1.155,0.422-1.155,1.022c0,0.464,0.287,0.805,0.82,0.918l0.405,0.088
			c0.372,0.08,0.534,0.246,0.534,0.548c0,0.355-0.261,0.577-0.657,0.577c-0.358,0-0.698-0.106-1.031-0.314l-0.195,0.388
			c0.334,0.208,0.783,0.336,1.192,0.336C93.237,47.283,93.733,46.842,93.733,46.19 M90.027,45.208H88.54
			c0.027-0.69,0.289-1.037,0.751-1.037c0.248,0,0.478,0.112,0.587,0.293C89.975,44.625,90.021,44.846,90.027,45.208 M90.569,45.603
			V45.53c0-0.798-0.092-1.113-0.371-1.407c-0.224-0.233-0.529-0.36-0.881-0.36c-0.393,0-0.713,0.146-0.975,0.461
			c-0.271,0.336-0.39,0.696-0.39,1.259c0,1.104,0.54,1.774,1.44,1.774c0.419,0,0.811-0.146,1.098-0.415l-0.195-0.336
			c-0.229,0.216-0.482,0.315-0.797,0.315c-0.327,0-0.626-0.121-0.81-0.408c-0.11-0.175-0.15-0.417-0.15-0.729v-0.08H90.569
			L90.569,45.603z M87.308,46.814l-0.281-0.334c-0.189,0.231-0.438,0.36-0.698,0.36c-0.521,0-0.803-0.408-0.803-1.158
			c0-0.488,0.06-0.857,0.184-1.093c0.117-0.228,0.357-0.375,0.614-0.375c0.246,0,0.391,0.075,0.618,0.27l0.28-0.361
			c-0.234-0.201-0.477-0.36-0.888-0.36c-0.345,0-0.626,0.127-0.881,0.388c-0.281,0.288-0.489,0.688-0.489,1.419
			c0,0.497,0.099,0.864,0.313,1.186c0.229,0.335,0.574,0.503,1.037,0.503C86.721,47.257,87.007,47.128,87.308,46.814 M83.98,47.183
			v-2.53c0-0.136-0.026-0.27-0.079-0.389c-0.13-0.294-0.444-0.488-0.797-0.488c-0.346,0-0.685,0.166-1.023,0.516
			c0-0.275-0.118-0.521-0.118-0.521l-0.496,0.14c0,0,0.125,0.229,0.125,0.703v2.571h0.496V44.7c0.234-0.257,0.64-0.471,0.898-0.471
			c0.151,0,0.289,0.054,0.36,0.142c0.093,0.113,0.117,0.2,0.117,0.556v2.257H83.98z M80.001,45.208h-1.488
			c0.024-0.69,0.287-1.037,0.751-1.037c0.246,0,0.476,0.112,0.588,0.293C79.948,44.625,79.992,44.846,80.001,45.208 M80.542,45.603
			V45.53c0-0.798-0.094-1.113-0.373-1.407c-0.221-0.233-0.526-0.36-0.879-0.36c-0.393,0-0.712,0.146-0.973,0.461
			c-0.275,0.336-0.393,0.696-0.393,1.259c0,1.104,0.541,1.774,1.441,1.774c0.416,0,0.81-0.146,1.096-0.415l-0.194-0.336
			c-0.229,0.216-0.484,0.315-0.796,0.315c-0.326,0-0.626-0.121-0.812-0.408c-0.109-0.175-0.148-0.417-0.148-0.729v-0.08H80.542
			L80.542,45.603z M76.921,47.183v-3.407l-0.528,0.086v3.321H76.921z M77.064,42.817c0-0.229-0.175-0.408-0.399-0.408
			c-0.221,0-0.396,0.188-0.396,0.414c0,0.223,0.177,0.401,0.396,0.401C76.89,43.225,77.064,43.046,77.064,42.817 M75.524,46.814
			l-0.281-0.334c-0.188,0.231-0.438,0.36-0.697,0.36c-0.523,0-0.805-0.408-0.805-1.158c0-0.488,0.061-0.857,0.184-1.093
			c0.118-0.228,0.359-0.375,0.612-0.375c0.25,0,0.393,0.075,0.621,0.27l0.28-0.361c-0.234-0.201-0.477-0.36-0.887-0.36
			c-0.347,0-0.628,0.127-0.882,0.388c-0.279,0.288-0.487,0.688-0.487,1.419c0,0.497,0.098,0.864,0.313,1.186
			c0.229,0.335,0.574,0.503,1.036,0.503C74.938,47.257,75.225,47.128,75.524,46.814 M72.372,45.883c0-0.285-0.109-0.595-0.294-0.81
			c-0.182-0.215-0.392-0.334-0.789-0.462l-0.515-0.168c-0.53-0.173-0.745-0.379-0.745-0.749c0-0.47,0.332-0.757,0.893-0.757
			c0.387,0,0.661,0.101,1.093,0.388l0.233-0.395c-0.424-0.294-0.867-0.441-1.35-0.441c-0.869,0-1.449,0.536-1.449,1.317
			c0,0.295,0.099,0.552,0.28,0.752c0.178,0.186,0.392,0.278,0.797,0.407l0.449,0.141c0.542,0.167,0.803,0.448,0.803,0.855
			c0,0.27-0.104,0.489-0.32,0.657c-0.188,0.147-0.37,0.201-0.712,0.201c-0.449,0-0.826-0.121-1.198-0.396l-0.233,0.428
			c0.442,0.28,0.898,0.416,1.433,0.416c0.412,0,0.712-0.087,1.006-0.28C72.151,46.728,72.372,46.313,72.372,45.883 M66.239,46.333
			c0,0-0.061,0.141-0.195,0.24c-0.21,0.154-0.358,0.214-0.625,0.214c-0.301,0-0.505-0.113-0.654-0.389
			c-0.104-0.193-0.131-0.479-0.131-0.868c0-0.47,0.053-0.711,0.209-0.966c0.138-0.229,0.353-0.35,0.606-0.35
			c0.385,0,0.626,0.114,0.79,0.35V46.333z M66.853,47.183c-0.071-0.193-0.099-0.502-0.099-1.077v-3.725l-0.509-0.087v1.399
			c0,0.241,0.006,0.516,0.006,0.516c-0.194-0.269-0.516-0.422-0.88-0.422c-0.234,0-0.418,0.062-0.627,0.207
			c-0.444,0.315-0.672,0.838-0.672,1.549c0,1.063,0.483,1.686,1.325,1.686c0.378,0,0.626-0.114,0.86-0.388
			c0.008,0.174,0.071,0.342,0.071,0.342H66.853z M62.716,45.208h-1.487c0.025-0.69,0.288-1.037,0.751-1.037
			c0.248,0,0.476,0.112,0.587,0.293C62.663,44.625,62.71,44.846,62.716,45.208 M63.257,45.603V45.53c0-0.798-0.091-1.113-0.37-1.407
			c-0.224-0.233-0.529-0.36-0.882-0.36c-0.391,0-0.711,0.146-0.973,0.461c-0.273,0.336-0.391,0.696-0.391,1.259
			c0,1.104,0.542,1.774,1.441,1.774c0.417,0,0.81-0.146,1.097-0.415l-0.196-0.336c-0.229,0.216-0.483,0.315-0.796,0.315
			c-0.325,0-0.626-0.121-0.81-0.408c-0.11-0.175-0.15-0.417-0.15-0.729v-0.08H63.257L63.257,45.603z M59.636,47.183v-3.407
			l-0.529,0.086v3.321H59.636z M59.78,42.817c0-0.229-0.176-0.408-0.398-0.408c-0.222,0-0.397,0.188-0.397,0.414
			c0,0.223,0.176,0.401,0.397,0.401C59.604,43.224,59.78,43.046,59.78,42.817 M58.227,47.177l-0.104-0.344
			c0,0-0.046,0.015-0.065,0.015c-0.144,0-0.184-0.072-0.184-0.334v-3.408c0-0.508-0.084-0.79-0.084-0.79l-0.509,0.1
			c0,0,0.078,0.248,0.078,0.685v3.535c0,0.24,0.053,0.381,0.156,0.476c0.099,0.094,0.229,0.141,0.385,0.141
			C58.038,47.25,58.097,47.236,58.227,47.177 M55.793,45.574c0,0.377-0.04,0.631-0.137,0.846c-0.111,0.247-0.386,0.414-0.686,0.414
			c-0.274,0-0.556-0.152-0.796-0.436v-1.68c0.247-0.31,0.541-0.471,0.867-0.471c0.263,0,0.496,0.143,0.603,0.369
			C55.734,44.819,55.793,45.174,55.793,45.574 M56.335,45.51c0-0.598-0.118-1.006-0.358-1.313c-0.209-0.267-0.536-0.414-0.867-0.414
			c-0.36,0-0.693,0.165-0.96,0.488c0-0.37-0.032-0.509-0.032-0.509l-0.522,0.093c0,0,0.072,0.21,0.072,0.717v4.004l0.509-0.1v-1.596
			c0.229,0.242,0.561,0.39,0.894,0.39c0.424,0,0.771-0.222,1.005-0.608C56.257,46.353,56.335,46.044,56.335,45.51 M52.101,45.574
			c0,0.377-0.04,0.631-0.139,0.846c-0.109,0.247-0.385,0.414-0.685,0.414c-0.273,0-0.554-0.152-0.797-0.436v-1.68
			c0.248-0.31,0.542-0.471,0.869-0.471c0.261,0,0.496,0.143,0.6,0.369C52.042,44.819,52.101,45.174,52.101,45.574 M52.643,45.51
			c0-0.598-0.119-1.006-0.359-1.313c-0.209-0.267-0.535-0.414-0.868-0.414c-0.358,0-0.69,0.165-0.959,0.488
			c0-0.37-0.033-0.509-0.033-0.509l-0.521,0.093c0,0,0.072,0.21,0.072,0.717v4.004l0.508-0.1v-1.596
			c0.229,0.242,0.562,0.39,0.895,0.39c0.424,0,0.771-0.222,1.005-0.608C52.564,46.353,52.643,46.044,52.643,45.51 M48.101,45.32
			h-1.391l0.705-2.249L48.101,45.32z M49.268,47.183l-1.481-4.594h-0.699l-1.492,4.594h0.541l0.431-1.413h1.67l0.423,1.413H49.268z
			 M44.16,42.528c-0.188-0.126-0.437-0.193-0.718-0.193c-0.242,0-0.417,0.055-0.574,0.176c-0.137,0.105-0.359,0.318-0.359,0.814
			v0.523h-0.313v0.395h0.313v2.939h0.535v-2.939h0.744l0.157-0.395h-0.901v-0.517c0-0.381,0.157-0.588,0.444-0.588
			c0.176,0,0.359,0.078,0.483,0.153L44.16,42.528z M40.826,45.609c0,0.328-0.026,0.516-0.098,0.724
			c-0.11,0.32-0.366,0.501-0.705,0.501c-0.28,0-0.541-0.134-0.659-0.335c-0.124-0.208-0.203-0.623-0.203-1.091
			c0-0.396,0.052-0.664,0.157-0.871c0.111-0.221,0.378-0.358,0.666-0.358c0.267,0,0.554,0.133,0.691,0.428
			C40.78,44.825,40.826,45.141,40.826,45.609 M41.406,45.568c0-0.542-0.098-0.938-0.3-1.238c-0.222-0.328-0.575-0.583-1.116-0.583
			c-0.854,0-1.383,0.663-1.383,1.749c0,1.098,0.509,1.773,1.404,1.773C40.826,47.27,41.406,46.681,41.406,45.568 M36.447,43.849
			h-0.58l-0.64,2.188c-0.078,0.275-0.202,0.701-0.202,0.701h-0.013c0,0-0.099-0.514-0.196-0.83l-0.666-2.162l-0.502,0.175
			l0.698,2.09c0.111,0.334,0.287,0.984,0.325,1.197l0.208-0.031c-0.175,0.676-0.332,0.889-0.75,1.022l0.151,0.355
			c0.566-0.142,0.834-0.583,1.05-1.253L36.447,43.849z M33.211,43.849h-0.814c0-0.442,0.064-0.967,0.064-0.967l-0.535,0.122
			c0,0-0.052,0.521-0.052,0.845h-0.425v0.395h0.425v2.29c0,0.335,0.084,0.549,0.313,0.663c0.124,0.061,0.254,0.095,0.424,0.095
			c0.228,0,0.411-0.048,0.573-0.136l-0.071-0.334c-0.091,0.047-0.176,0.065-0.319,0.065c-0.319,0-0.417-0.126-0.417-0.494v-2.149
			h0.679L33.211,43.849z M30.589,47.183v-3.407l-0.529,0.086v3.321H30.589z M30.731,42.817c0-0.229-0.175-0.408-0.396-0.408
			c-0.223,0-0.398,0.188-0.398,0.414c0,0.223,0.177,0.401,0.398,0.401C30.556,43.225,30.731,43.046,30.731,42.817 M29.095,46.19
			c0-0.494-0.281-0.803-0.869-0.93l-0.431-0.095c-0.346-0.071-0.469-0.228-0.469-0.48c0-0.327,0.241-0.549,0.613-0.549
			c0.287,0,0.527,0.1,0.814,0.24l0.189-0.389c-0.273-0.161-0.652-0.269-0.991-0.269c-0.679,0-1.155,0.422-1.155,1.022
			c0,0.464,0.287,0.805,0.822,0.918l0.405,0.088c0.372,0.08,0.535,0.246,0.535,0.548c0,0.355-0.262,0.577-0.659,0.577
			c-0.359,0-0.698-0.106-1.031-0.314l-0.196,0.388c0.333,0.208,0.782,0.336,1.193,0.336C28.598,47.283,29.095,46.842,29.095,46.19
			 M26.263,43.782c0,0-0.094-0.035-0.178-0.035c-0.333,0-0.679,0.216-0.914,0.557c0.021-0.279-0.104-0.541-0.104-0.541L24.56,43.9
			c0,0,0.11,0.223,0.11,0.711v2.571h0.51v-2.088c0-0.275,0.039-0.376,0.189-0.53s0.346-0.24,0.541-0.24
			c0.052,0,0.111,0.013,0.145,0.025L26.263,43.782z M23.079,45.208h-1.487c0.026-0.69,0.287-1.037,0.75-1.037
			c0.248,0,0.477,0.112,0.589,0.293C23.026,44.625,23.072,44.846,23.079,45.208 M23.62,45.603V45.53
			c0-0.798-0.092-1.113-0.372-1.407c-0.222-0.233-0.528-0.36-0.88-0.36c-0.392,0-0.711,0.146-0.972,0.461
			c-0.274,0.336-0.393,0.696-0.393,1.259c0,1.104,0.542,1.774,1.441,1.774c0.418,0,0.81-0.146,1.096-0.415l-0.194-0.336
			c-0.229,0.216-0.483,0.315-0.797,0.315c-0.326,0-0.627-0.121-0.809-0.408c-0.112-0.175-0.15-0.417-0.15-0.729v-0.08H23.62
			L23.62,45.603z M20.516,43.849h-0.541l-0.745,2.217c-0.104,0.301-0.156,0.562-0.156,0.562h-0.013c0,0-0.065-0.294-0.157-0.569
			l-0.756-2.295l-0.521,0.113l1.167,3.339h0.503L20.516,43.849z M16.908,47.183v-3.407l-0.529,0.086v3.321H16.908z M17.051,42.817
			c0-0.229-0.176-0.408-0.397-0.408s-0.399,0.188-0.399,0.414c0,0.223,0.178,0.401,0.399,0.401S17.051,43.046,17.051,42.817
			 M15.185,47.183v-2.53c0-0.136-0.026-0.27-0.078-0.389c-0.131-0.294-0.445-0.488-0.797-0.488c-0.346,0-0.686,0.166-1.024,0.516
			c0-0.275-0.118-0.521-0.118-0.521l-0.496,0.14c0,0,0.124,0.229,0.124,0.703v2.571h0.497V44.7c0.233-0.257,0.639-0.471,0.899-0.471
			c0.149,0,0.288,0.054,0.359,0.142c0.093,0.113,0.118,0.2,0.118,0.556v2.257H15.185z M11.545,45.857V42.59h-0.528v3.2
			c0,0.309-0.02,0.508-0.17,0.716c-0.137,0.188-0.417,0.288-0.789,0.288c-0.549,0-0.789-0.247-0.875-0.448
			c-0.059-0.141-0.078-0.437-0.078-0.662V42.59H8.575v3.293c0,0.201,0.014,0.496,0.131,0.718c0.24,0.456,0.632,0.663,1.324,0.663
			c0.542,0,0.901-0.114,1.174-0.355C11.473,46.674,11.545,46.413,11.545,45.857"/>
	</g>
</g>
</svg>
