<?xml version="1.0" encoding="utf-8"?>
<!-- Generator: Adobe Illustrator 19.1.0, SVG Export Plug-In . SVG Version: 6.00 Build 0)  -->
<svg id="signet" width="471px" height="70px" viewBox="0 0 471 70" version="1.1" xmlns="http://www.w3.org/2000/svg" xmlns:xlink="http://www.w3.org/1999/xlink">
    <title>Logo der Hochschule Hamm-Lippstadt</title>
    <desc>Created with love.</desc>
    <defs>
        <polygon id="path-1" points="69.9855 70 0.06 70 0.06 0.045 69.9855 0.045 139.911 0.045 139.911 70 69.9855 70"></polygon>
    </defs>
    <g id="Page-1" stroke="none" stroke-width="1" fill="none" fill-rule="evenodd">
        <g id="HSHL_Logo_horizontal_CMYK_blue_green_2016_09_28">
            <polygon id="Fill-1" fill="#FFFFFF" mask="url(#mask-2)" points="0.06 70 139.911 70 139.911 0.045 0.06 0.045"></polygon>
            <polyline id="left" fill="#00A8D8" mask="url(#mask-2)" points="0 0.045 0 70 65.583 70 65.583 43.767 37.164 43.767 37.164 28.464 65.583 28.464 65.583 0.045 0 0.045" style="fill: rgb(226, 6, 26);"></polyline>
            <polyline id="right" fill="#00A049" points="74.327 0.045 74.327 28.464 102.747 28.464 102.747 43.767 74.327 43.767 74.327 70 139.911 70 139.911 0.045 74.327 0.045" style="fill: rgb(254, 204, 0);"></polyline>
            <path d="M461.647,45.888 L470.306,45.888 L470.306,43.477 L450.36,43.477 L450.36,45.888 L459.018,45.888 L459.018,69.342 L461.647,69.342 L461.647,45.888 L461.647,45.888 Z M428.551,45.888 L433.664,45.888 C441.556,45.888 445.245,51.076 445.245,56.41 C445.245,61.743 441.556,66.93 433.664,66.93 L428.551,66.93 L428.551,45.888 L428.551,45.888 Z M425.92,69.342 L434.505,69.342 C440.97,69.342 448.094,65.03 448.094,56.41 C448.094,47.789 440.97,43.477 434.505,43.477 L425.92,43.477 L425.92,69.342 L425.92,69.342 Z M410.248,46.547 L415.839,60.135 L404.625,60.135 L410.248,46.547 L410.248,46.547 Z M403.638,62.546 L416.861,62.546 L419.711,69.342 L422.78,69.342 L411.528,43.477 L408.971,43.477 L397.719,69.342 L400.789,69.342 L403.638,62.546 L403.638,62.546 Z M391.029,45.888 L399.688,45.888 L399.688,43.477 L379.742,43.477 L379.742,45.888 L388.4,45.888 L388.4,69.342 L391.029,69.342 L391.029,45.888 L391.029,45.888 Z M376.965,45.963 C374.92,43.625 372.581,42.821 369.659,42.821 C365.458,42.821 361.293,45.16 361.293,50.162 C361.293,59.624 374.554,55.57 374.554,62.877 C374.554,65.909 371.594,67.589 369.003,67.589 C366.299,67.589 364.216,66.347 363.121,64.447 L360.746,66.164 C362.718,68.866 365.75,70 368.893,70 C372.984,70 377.404,67.223 377.404,62.511 C377.404,53.194 364.143,56.885 364.143,49.907 C364.143,46.657 366.955,45.232 369.659,45.232 C371.852,45.232 373.533,46.071 374.664,47.751 L376.965,45.963 L376.965,45.963 Z M344.087,45.888 L348.326,45.888 C353.038,45.888 354.646,47.899 354.646,50.383 C354.646,52.866 353.038,54.912 348.326,54.912 L344.087,54.912 L344.087,45.888 L344.087,45.888 Z M341.458,69.342 L344.087,69.342 L344.087,57.323 L348.982,57.323 C354.243,57.323 357.495,55.022 357.495,50.383 C357.495,45.743 354.243,43.477 348.982,43.477 L341.458,43.477 L341.458,69.342 L341.458,69.342 Z M323.12,45.888 L327.356,45.888 C332.071,45.888 333.678,47.899 333.678,50.383 C333.678,52.866 332.071,54.912 327.356,54.912 L323.12,54.912 L323.12,45.888 L323.12,45.888 Z M320.491,69.342 L323.12,69.342 L323.12,57.323 L328.015,57.323 C333.275,57.323 336.528,55.022 336.528,50.383 C336.528,45.743 333.275,43.477 328.015,43.477 L320.491,43.477 L320.491,69.342 L320.491,69.342 Z M310.846,69.342 L313.475,69.342 L313.475,43.478 L310.846,43.478 L310.846,69.342 Z M295.212,43.477 L292.58,43.477 L292.58,69.342 L307.266,69.342 L307.266,66.93 L295.212,66.93 L295.212,43.477 L295.212,43.477 Z M278.296,61.78 L287.686,61.78 L287.686,59.369 L278.296,59.369 L278.296,61.78 Z M251.923,43.477 L247.904,43.477 L247.904,69.342 L250.533,69.342 L250.533,46.985 L250.609,46.985 L259.96,69.342 L261.348,69.342 L270.699,46.985 L270.772,46.985 L270.772,69.342 L273.404,69.342 L273.404,43.477 L269.385,43.477 L260.654,64.519 L251.923,43.477 L251.923,43.477 Z M219.41,43.477 L215.392,43.477 L215.392,69.342 L218.021,69.342 L218.021,46.985 L218.096,46.985 L227.448,69.342 L228.835,69.342 L238.187,46.985 L238.26,46.985 L238.26,69.342 L240.891,69.342 L240.891,43.477 L236.872,43.477 L228.141,64.519 L219.41,43.477 L219.41,43.477 Z M199.355,46.547 L204.946,60.135 L193.729,60.135 L199.355,46.547 L199.355,46.547 Z M192.744,62.546 L205.968,62.546 L208.817,69.342 L211.886,69.342 L200.634,43.477 L198.078,43.477 L186.825,69.342 L189.895,69.342 L192.744,62.546 L192.744,62.546 Z M163.958,69.342 L166.587,69.342 L166.587,57.103 L180.689,57.103 L180.689,69.342 L183.32,69.342 L183.32,43.477 L180.689,43.477 L180.689,54.694 L166.587,54.694 L166.587,43.477 L163.958,43.477 L163.958,69.342 L163.958,69.342 Z" id="Fill-6" fill="#1A1918"></path>
            <path d="M450.961,18.468 L466.782,18.468 L466.782,15.425 L450.961,15.425 L450.961,4.307 L467.89,4.307 L467.89,1.264 L447.64,1.264 L447.64,33.922 L468.445,33.922 L468.445,30.876 L450.961,30.876 L450.961,18.468 L450.961,18.468 Z M427.897,1.264 L424.577,1.264 L424.577,33.922 L443.12,33.922 L443.12,30.876 L427.897,30.876 L427.897,1.264 L427.897,1.264 Z M416.273,1.264 L412.952,1.264 L412.952,21.375 C412.952,30.786 406.818,31.706 404.327,31.706 C401.837,31.706 395.702,30.786 395.702,21.375 L395.702,1.264 L392.379,1.264 L392.379,21.745 C392.379,27.188 394.548,34.752 404.327,34.752 C414.106,34.752 416.273,27.188 416.273,21.745 L416.273,1.264 L416.273,1.264 Z M359.629,33.922 L362.952,33.922 L362.952,18.468 L380.757,18.468 L380.757,33.922 L384.078,33.922 L384.078,1.264 L380.757,1.264 L380.757,15.425 L362.952,15.425 L362.952,1.264 L359.629,1.264 L359.629,33.922 L359.629,33.922 Z M351.328,26.818 C348.883,30.601 345.375,31.706 341.962,31.706 C333.569,31.706 328.539,25.111 328.539,17.592 C328.539,10.074 333.569,3.477 341.962,3.477 C345.422,3.477 349.066,5.646 350.359,7.766 L353.265,5.6 C350.405,1.955 346.023,0.434 341.962,0.434 C332.23,0.434 324.941,7.674 324.941,17.592 C324.941,27.509 332.23,34.752 341.962,34.752 C347.36,34.752 351.88,32.123 354.049,28.756 L351.328,26.818 L351.328,26.818 Z M319.868,4.4 C317.285,1.447 314.332,0.434 310.641,0.434 C305.337,0.434 300.078,3.384 300.078,9.704 C300.078,21.652 316.824,16.532 316.824,25.757 C316.824,29.586 313.088,31.706 309.811,31.706 C306.398,31.706 303.769,30.139 302.386,27.741 L299.387,29.91 C301.877,33.323 305.707,34.752 309.675,34.752 C314.841,34.752 320.423,31.246 320.423,25.296 C320.423,13.534 303.677,18.193 303.677,9.383 C303.677,5.276 307.228,3.477 310.641,3.477 C313.409,3.477 315.532,4.538 316.961,6.661 L319.868,4.4 L319.868,4.4 Z M268.204,33.922 L271.528,33.922 L271.528,18.468 L289.333,18.468 L289.333,33.922 L292.653,33.922 L292.653,1.264 L289.333,1.264 L289.333,15.425 L271.528,15.425 L271.528,1.264 L268.204,1.264 L268.204,33.922 L268.204,33.922 Z M259.903,26.818 C257.459,30.601 253.953,31.706 250.538,31.706 C242.144,31.706 237.117,25.111 237.117,17.592 C237.117,10.074 242.144,3.477 250.538,3.477 C254,3.477 257.642,5.646 258.934,7.766 L261.841,5.6 C258.98,1.955 254.598,0.434 250.538,0.434 C240.805,0.434 233.519,7.674 233.519,17.592 C233.519,27.509 240.805,34.752 250.538,34.752 C255.935,34.752 260.456,32.123 262.625,28.756 L259.903,26.818 L259.903,26.818 Z M225.493,17.592 C225.493,25.111 220.463,31.706 212.069,31.706 C203.673,31.706 198.646,25.111 198.646,17.592 C198.646,10.074 203.673,3.477 212.069,3.477 C220.463,3.477 225.493,10.074 225.493,17.592 L225.493,17.592 Z M229.091,17.592 C229.091,7.674 221.802,0.434 212.069,0.434 C202.336,0.434 195.048,7.674 195.048,17.592 C195.048,27.509 202.336,34.752 212.069,34.752 C221.802,34.752 229.091,27.509 229.091,17.592 L229.091,17.592 Z M163.958,33.922 L167.278,33.922 L167.278,18.468 L185.084,18.468 L185.084,33.922 L188.406,33.922 L188.406,1.264 L185.084,1.264 L185.084,15.425 L167.278,15.425 L167.278,1.264 L163.958,1.264 L163.958,33.922 L163.958,33.922 Z" id="Fill-8" fill="#000000"></path>
        </g>
    </g>
</svg>
