<?xml version="1.0" encoding="utf-8"?>
<!-- Generator: Adobe Illustrator 12.0.0, SVG Export Plug-In . SVG Version: 6.00 Build 51448)  -->
<!DOCTYPE svg PUBLIC "-//W3C//DTD SVG 1.1//EN" "http://www.w3.org/Graphics/SVG/1.1/DTD/svg11.dtd" [
	<!ENTITY ns_svg "http://www.w3.org/2000/svg">
	<!ENTITY ns_xlink "http://www.w3.org/1999/xlink">
]>
<svg  version="1.1" id="Layer_1" xmlns="&ns_svg;" xmlns:xlink="&ns_xlink;" width="686" height="453" viewBox="0 0 686 453"
	 overflow="visible" enable-background="new 0 0 686 453" xml:space="preserve">
<title>Page 1</title>
<desc>Created with Sketch.</desc>
<g id="Fastlane-HP-Build">
	<g id="Fastlane-Build" transform="translate(-147.000000, -4023.000000)">
		<g id="Code-signing" transform="translate(-15.000000, 3745.000000)">
			<g id="Page-1" transform="translate(164.000000, 280.000000)">
				<path id="Fill-1" opacity="0.2989" fill="#0082FF" enable-background="new    " d="M95.466,416C93.01,416,91,413.987,91,411.526
					V257.473c0-2.46,2.01-4.473,4.466-4.473h266.069c2.456,0,4.465,2.013,4.465,4.473v154.054c0,2.461-2.009,4.474-4.465,4.474
					H95.466z"/>
				<path id="Fill-1_1_" fill="#090A49" d="M89.466,411C87.01,411,85,408.987,85,406.526V252.473c0-2.46,2.01-4.473,4.466-4.473
					h266.069c2.456,0,4.465,2.013,4.465,4.473v154.054c0,2.461-2.009,4.474-4.465,4.474H89.466z"/>
				<path id="Stroke-3" fill="none" stroke="#FEFEFE" stroke-width="4" d="M352.547,410H84.454c-2.449,0-4.454-2.006-4.454-4.457
					V250.456c0-2.451,2.005-4.456,4.454-4.456h268.093c2.449,0,4.453,2.005,4.453,4.456v155.087
					C357,407.994,354.996,410,352.547,410z"/>
				<path id="Stroke-5" fill="none" stroke="#FEFEFE" stroke-width="4" d="M81,275l277,0.56"/>
				<path id="Fill-7" fill="#FEFEFE" d="M184.509,260H94.491c-0.819,0-1.491-0.45-1.491-1c0-0.551,0.672-1,1.491-1h90.018
					c0.82,0,1.491,0.449,1.491,1C186,259.55,185.329,260,184.509,260"/>
				<path id="Stroke-9" fill="none" stroke="#FEFEFE" stroke-width="3" d="M102,303c0,2.209-1.79,4-4,4c-2.209,0-4-1.791-4-4
					c0-2.21,1.791-4,4-4C100.21,299,102,300.79,102,303z"/>
				<path id="Stroke-11" fill="none" stroke="#7CC6B7" stroke-width="3" d="M102,331c0,2.209-1.79,4-4,4c-2.209,0-4-1.791-4-4
					c0-2.21,1.791-4,4-4C100.21,327,102,328.79,102,331z"/>
				<path id="Stroke-13" fill="none" stroke="#EC2760" stroke-width="3" d="M102,358c0,2.209-1.79,4-4,4c-2.209,0-4-1.791-4-4
					c0-2.21,1.791-4,4-4C100.21,354,102,355.79,102,358z"/>
				<path id="Fill-15" opacity="0.4997" fill="#0082FF" enable-background="new    " d="M364.535,204H98.466
					C96.01,204,94,201.986,94,199.526V45.473C94,43.013,96.01,41,98.466,41h266.069c2.456,0,4.465,2.013,4.465,4.473v154.054
					C369,201.986,366.991,204,364.535,204"/>
				<path id="Fill-15_1_" fill="#090A49" d="M360.535,198H94.466C92.01,198,90,195.986,90,193.526V39.473
					C90,37.013,92.01,35,94.466,35h266.069c2.456,0,4.465,2.013,4.465,4.473v154.054C365,195.986,362.991,198,360.535,198"/>
				<path id="Stroke-17" fill="none" stroke="#FEFEFE" stroke-width="4" d="M355.547,195H87.454c-2.449,0-4.454-2.006-4.454-4.457
					V35.456C83,33.005,85.005,31,87.454,31h268.093c2.449,0,4.453,2.005,4.453,4.456v155.087C360,192.994,357.996,195,355.547,195z"
					/>
				<path id="Stroke-19" fill="none" stroke="#FEFEFE" stroke-width="4" d="M83,63l277,0.56"/>
				<path id="Fill-21" fill="#FEFEFE" d="M186.509,49H96.491C95.672,49,95,48.55,95,48c0-0.551,0.672-1,1.491-1h90.018
					c0.82,0,1.491,0.449,1.491,1C188,48.55,187.329,49,186.509,49"/>
				<path id="Stroke-23" fill="none" stroke="#EC2760" stroke-width="3" d="M105,90c0,2.209-1.791,4-4,4s-4-1.791-4-4
					c0-2.21,1.791-4,4-4S105,87.79,105,90z"/>
				<path id="Stroke-25" fill="none" stroke="#7CC6B7" stroke-width="3" d="M105,119c0,2.209-1.791,4-4,4s-4-1.791-4-4
					c0-2.21,1.791-4,4-4S105,116.79,105,119z"/>
				<path id="Stroke-27" fill="none" stroke="#FEFEFE" stroke-width="3" d="M105,145c0,2.209-1.791,4-4,4s-4-1.791-4-4s1.791-4,4-4
					S105,142.791,105,145z"/>
				<path id="Fill-29" opacity="0.3419" fill="#0082FF" enable-background="new    " d="M679.535,304H413.467
					c-2.457,0-4.467-2.014-4.467-4.474V145.473c0-2.46,2.01-4.473,4.467-4.473h266.068c2.456,0,4.465,2.013,4.465,4.473v154.054
					C684,301.986,681.991,304,679.535,304"/>
				<path id="Fill-29_1_" fill="#090A49" d="M675.535,298H409.467c-2.457,0-4.467-2.014-4.467-4.474V139.473
					c0-2.46,2.01-4.473,4.467-4.473h266.068c2.456,0,4.465,2.013,4.465,4.473v154.054C680,295.986,677.991,298,675.535,298"/>
				<path id="Stroke-31" fill="none" stroke="#FEFEFE" stroke-width="4" d="M668.547,295H400.454c-2.449,0-4.454-2.006-4.454-4.457
					V135.456c0-2.451,2.005-4.456,4.454-4.456h268.093c2.449,0,4.453,2.005,4.453,4.456v155.087
					C673,292.994,670.996,295,668.547,295z"/>
				<path id="Stroke-33" fill="none" stroke="#FEFEFE" stroke-width="4" d="M396,159l277,0.56"/>
				<path id="Fill-35" fill="#FEFEFE" d="M499.509,146h-90.017c-0.82,0-1.492-0.45-1.492-1c0-0.551,0.672-1,1.492-1h90.017
					c0.82,0,1.491,0.449,1.491,1C501,145.55,500.329,146,499.509,146"/>
				<path id="Stroke-37" fill="none" stroke="#EC2760" stroke-width="3" d="M418,187c0,2.209-1.791,4-4,4c-2.208,0-4-1.791-4-4
					c0-2.21,1.792-4,4-4C416.209,183,418,184.79,418,187z"/>
				<path id="Stroke-39" fill="none" stroke="#7CC6B7" stroke-width="3" d="M418,215c0,2.209-1.791,4-4,4c-2.208,0-4-1.791-4-4
					c0-2.21,1.792-4,4-4C416.209,211,418,212.79,418,215z"/>
				<path id="Stroke-41" fill="none" stroke="#EC2760" stroke-width="3" d="M418,243c0,2.209-1.791,4-4,4c-2.208,0-4-1.791-4-4
					s1.792-4,4-4C416.209,239,418,240.791,418,243z"/>
				<path id="Stroke-43" fill="none" stroke="#EC2760" stroke-width="3" d="M416.833,189C441.151,189,457,168.826,457,144.17v-1.922
					v4.704V46.751V44.83C457,20.173,439.811,0,418.802,0H98.198C77.189,0,60,20.173,60,44.83v1.921
					c0,24.656,17.189,44.83,38.198,44.83"/>
				<path id="Stroke-45" fill="none" stroke="#EC2760" stroke-width="3" d="M418.586,243C443.053,243,459,263.195,459,287.879
					v16.793v1.923v-18.716v114.318v1.923c0,24.684-17.491,44.88-38.871,44.88H93.872C72.493,449,55,428.804,55,404.12v-1.923
					c0-24.684,17.493-44.879,38.872-44.879"/>
				<path id="Stroke-47" fill="none" stroke="#7CC6B7" stroke-width="3" d="M102,331l314.787-0.406
					c31.468,0,57.213-26.009,57.213-57.797l0,0C474,241.009,448.255,215,416.787,215"/>
				<path id="Stroke-51" fill="none" stroke="#7CC6B7" stroke-width="3" d="M104,119l315,0.631"/>
				<path id="Stroke-53" fill="none" stroke="#7CC6B7" stroke-width="3" d="M467,168.49c0,27.213-21.5,46.51-49,46.51"/>
				<path id="Stroke-55" fill="none" stroke="#7CC6B7" stroke-width="3" d="M417,120c27.501,0,50,22.266,50,49.479"/>
				<path id="Stroke-57" fill="none" stroke="#7CC6B7" stroke-width="3" d="M93.233,332C40.214,332,0,284.076,0,224.988
					C0,165.899,42.98,118,96,118"/>
			</g>
		</g>
	</g>
</g>
<path id="path7031" fill="#69ACD6" d="M579.421,249.491l11.895,1.239l2.724,5.481l-7.875,8.494l8.222,7.222l9.795-6.775l5.826,2.523
	l1.426,10.353c0,0,9.609,0.559,11.627,0.46c0.206-3.177,1.768-10.53,1.768-10.53l6.021-2.356l9.327,6.838l8.584-7.122l-7.499-8.34
	l3.005-5.301l10.811-1.498l0.667-10.292c0,0-10.971-0.811-11.341-1.873c-0.373-1.062-2.724-5.529-2.724-5.529l7.264-7.863
	c0,0-7.675-6.933-8.555-6.882c-0.883,0.05-8.521,5.903-8.521,5.903s-5.629-2.521-6.321-2.526c-0.692-0.004-1.815-9.867-1.815-9.867
	l-11.516-0.361c0,0-1.073,9.963-1.769,10.237c-0.693,0.275-4.435,1.425-6.516,2.304c-2.381-1.91-8.943-6.591-8.943-6.591
	l-8.032,7.223l7.059,8.239l-2.787,5.597l-11.413,1.251L579.421,249.491z M605.403,244.615c0.035-5.966,5.502-10.8,12.243-10.76
	c6.737,0.04,12.203,4.937,12.169,10.906c-0.036,5.967-5.559,10.75-12.298,10.711C610.777,255.433,605.369,250.584,605.403,244.615z"
	/>
<path id="path8974" fill="#7CC6B7" d="M552.007,174.735l3.374,10.18l-4.631,4.354l-11.917-3.111l-4.279,9.514l10.879,5.345
	l-0.339,5.732l-10.202,5.195c0,0,3.188,8.052,4.081,9.655c3.383-1.068,11.64-2.659,11.64-2.659l4.809,3.99l-3.451,10.267
	l10.769,4.222l5.729-9.361l6.69,0.388l5.795,8.228l10.96-3.466c0,0-3.459-9.256-2.501-9.973c0.957-0.716,4.682-4.372,4.682-4.372
	l11.02,2.86c0,0,4.199-8.955,3.799-9.655c-0.396-0.696-9.477-4.645-9.477-4.645s0.416-5.572,0.146-6.139
	c-0.266-0.565,9.548-5.321,9.548-5.321l-4.142-9.526c0,0-10.776,3.003-11.333,2.543c-0.559-0.458-3.22-3.058-4.951-4.413
	c1.053-2.684,3.347-9.857,3.347-9.857l-10.66-3.734l-5.793,8.963l-6.911-0.094l-5.774-8.817L552.007,174.735z M567.259,194.018
	c6.218-2.295,13.386,0.279,15.985,5.789c2.603,5.51-0.345,11.87-6.563,14.166c-6.216,2.295-13.354-0.341-15.956-5.852
	C558.123,202.611,561.041,196.314,567.259,194.018z"/>
<path id="path8976" fill="#EC2760" d="M487.728,248.952l11.896,1.24l2.724,5.481l-7.876,8.492l8.224,7.223l9.794-6.776l5.826,2.524
	l1.428,10.353c0,0,9.607,0.559,11.623,0.46c0.207-3.177,1.771-10.53,1.771-10.53l6.02-2.354l9.329,6.837l8.583-7.122l-7.5-8.34
	l3.007-5.302l10.809-1.497l0.667-10.293c0,0-10.97-0.811-11.341-1.871c-0.372-1.063-2.724-5.531-2.724-5.531l7.266-7.862
	c0,0-7.677-6.934-8.557-6.883c-0.881,0.05-8.521,5.903-8.521,5.903s-5.628-2.521-6.32-2.525c-0.692-0.004-1.816-9.867-1.816-9.867
	l-11.515-0.361c0,0-1.076,9.962-1.77,10.236c-0.694,0.276-4.434,1.425-6.518,2.306c-2.378-1.911-8.941-6.592-8.941-6.592
	l-8.033,7.224l7.062,8.24l-2.79,5.594l-11.413,1.251L487.728,248.952z M513.713,244.078c0.034-5.968,5.499-10.802,12.24-10.762
	c6.738,0.039,12.205,4.937,12.169,10.905c-0.033,5.968-5.556,10.751-12.296,10.711C519.086,254.894,513.677,250.046,513.713,244.078
	z"/>
</svg>
