<?xml version="1.0" encoding="utf-8"?>
<!-- Generator: Adobe Illustrator 12.0.0, SVG Export Plug-In . SVG Version: 6.00 Build 51448)  -->
<!DOCTYPE svg PUBLIC "-//W3C//DTD SVG 1.1//EN" "http://www.w3.org/Graphics/SVG/1.1/DTD/svg11.dtd" [
	<!ENTITY ns_svg "http://www.w3.org/2000/svg">
	<!ENTITY ns_xlink "http://www.w3.org/1999/xlink">
]>
<svg  version="1.1" id="Layer_1" xmlns="&ns_svg;" xmlns:xlink="&ns_xlink;" width="627" height="492" viewBox="0 0 627 492"
	 overflow="visible" enable-background="new 0 0 627 492" xml:space="preserve">
<title>Group 31</title>
<desc>Created with Sketch.</desc>
<g id="Fastlane-HP-Build">
	<g id="Fastlane-Build" transform="translate(-155.000000, -3238.000000)">
		<g id="Publish" transform="translate(-67.000000, 2885.000000)">
			<g id="Group-33" transform="translate(191.000000, 221.000000)">
				<g id="Group-32">
					<g id="Group-31" transform="translate(31.000000, 134.000000)">
						<g id="Group-30" transform="translate(176.000000, 188.000000)">
							<path id="Oval-6" fill="none" stroke="#7CC6B7" stroke-width="5" d="M194.725,299c111.407,0,201.721-84.911,201.721-189.653"
								/>
							<path id="Oval-6_1_" fill="none" stroke="#7CC6B7" stroke-width="5" d="M201.951,299C90.544,299,0.229,214.089,0.229,109.347
								"/>
							<path id="Oval-6_2_" fill="none" stroke="#7CC6B7" stroke-width="5" d="M0.084,110.638
								C0.084-0.769-3.992,0.093,100.751,0.093"/>
						</g>
						<path id="Fill-1" fill="#7CC6B7" d="M594.487,383H486.513C468.632,383,454,368.364,454,350.474V48.526
							C454,30.637,468.632,16,486.513,16h107.974C612.369,16,627,30.637,627,48.526v301.948C627,368.364,612.369,383,594.487,383"/>
						<g id="Group-29" transform="translate(428.000000, 0.000000)">
							<path id="Fill-3" fill="#090A49" d="M153.127,364.82H47.437c-17.504,0-31.825-14.301-31.825-31.779V38.017
								c0-17.479,14.321-31.78,31.825-31.78h105.689c17.504,0,31.825,14.301,31.825,31.78V333.04
								C184.952,350.519,170.631,364.82,153.127,364.82"/>
							<path id="Stroke-5" fill="none" stroke="#FFFFFF" stroke-width="4" d="M145.072,374.587H31.826
								C14.322,374.587,0,360.286,0,342.807V31.78C0,14.301,14.322,0,31.826,0h113.246c17.504,0,31.825,14.301,31.825,31.779
								v311.027C176.897,360.286,162.576,374.587,145.072,374.587z"/>
						</g>
						<g id="Group-14" transform="translate(364.000000, 255.000000)">
							<path id="Rectangle-12" opacity="0.5" fill="#EC2760" enable-background="new    " d="M4.735,0h113.737
								c2.615,0,4.734,2.12,4.734,4.734l0,0c0,2.615-2.119,4.735-4.734,4.735H4.735C2.12,9.47,0,7.35,0,4.735l0,0
								C0,2.12,2.12,0,4.735,0z"/>
							<path id="Rectangle-12_1_" fill="#EC2760" d="M94.308,20.293h55.83c2.615,0,4.735,2.12,4.735,4.735l0,0
								c0,2.615-2.12,4.735-4.735,4.735h-55.83c-2.614,0-4.734-2.12-4.734-4.735l0,0C89.574,22.413,91.694,20.293,94.308,20.293z"/>
							<path id="Rectangle-12_2_" opacity="0.5" fill="#EC2760" enable-background="new    " d="M208.046,20.293h-42.276
								c-2.615,0-4.735,2.12-4.735,4.735l0,0c0,2.615,2.12,4.735,4.735,4.735h42.276c2.615,0,4.735-2.12,4.735-4.735l0,0
								C212.781,22.413,210.661,20.293,208.046,20.293z"/>
							<path id="Rectangle-12_3_" fill="#EC2760" d="M119.901,40.425h17.636c2.615,0,4.734,2.12,4.734,4.735l0,0
								c0,2.615-2.119,4.735-4.734,4.735h-17.636c-2.615,0-4.735-2.12-4.735-4.735l0,0
								C115.166,42.545,117.286,40.425,119.901,40.425z"/>
							<path id="Rectangle-12_4_" fill="#EC2760" d="M219.711,40.425h-65.687c-2.615,0-4.734,2.12-4.734,4.735l0,0
								c0,2.615,2.119,4.735,4.734,4.735h65.687c2.615,0,4.734-2.12,4.734-4.735l0,0C224.445,42.545,222.326,40.425,219.711,40.425z
								"/>
						</g>
						<g id="Group-16" transform="translate(0.000000, 15.000000)">
							<g id="Page-1">
								<path id="Fill-1_2_" fill="#7CC6B7" d="M4.753,242.548c-2.614,0-4.753-2.132-4.753-4.737V25.721
									c0-2.605,2.139-4.737,4.753-4.737h286.091c2.614,0,4.753,2.132,4.753,4.737v212.09c0,2.605-2.139,4.737-4.753,4.737H4.753z"
									/>
								<path id="Fill-3_1_" fill="#090A49" d="M301.708,229.688H15.617c-2.614,0-4.753-2.132-4.753-4.738V12.861
									c0-2.605,2.139-4.738,4.753-4.738h286.091c2.614,0,4.753,2.133,4.753,4.738v212.089
									C306.461,227.556,304.322,229.688,301.708,229.688"/>
								<path id="Fill-5" fill="#7CC6B7" d="M212.518,81.201h-77.052c-2.43,0-4.417-1.974-4.417-4.387
									c0-2.414,1.987-4.389,4.417-4.389h77.052c2.43,0,4.417,1.975,4.417,4.389C216.935,79.228,214.948,81.201,212.518,81.201"/>
								<path id="Fill-7" fill="#7CC6B7" d="M157.595,63.603H49.911c-2.43,0-4.417-1.975-4.417-4.388s1.987-4.388,4.417-4.388
									h107.685c2.43,0,4.417,1.975,4.417,4.388S160.025,63.603,157.595,63.603"/>
								<path id="Fill-9_1_" fill="#7CC6B7" d="M121.37,81.201h-19.854c-2.429,0-4.417-1.974-4.417-4.387
									c0-2.414,1.988-4.389,4.417-4.389h19.854c2.429,0,4.416,1.975,4.416,4.389C125.786,79.228,123.799,81.201,121.37,81.201"/>
								<path id="Fill-11" fill="#7CC6B7" d="M87.205,81.201H59.417c-2.43,0-4.417-1.974-4.417-4.387
									c0-2.414,1.987-4.389,4.417-4.389h27.788c2.429,0,4.417,1.975,4.417,4.389C91.622,79.228,89.634,81.201,87.205,81.201"/>
								<path id="Fill-13" fill="#7CC6B7" d="M60.589,100.155h-1.172c-2.43,0-4.417-1.975-4.417-4.388
									c0-2.414,1.987-4.388,4.417-4.388h1.172c2.43,0,4.417,1.974,4.417,4.388C65.006,98.18,63.018,100.155,60.589,100.155"/>
								<path id="Fill-15" fill="#7CC6B7" d="M167.899,100.155H73.677c-2.43,0-4.417-1.975-4.417-4.388
									c0-2.414,1.987-4.388,4.417-4.388h94.223c2.429,0,4.417,1.974,4.417,4.388C172.316,98.18,170.328,100.155,167.899,100.155"
									/>
								<path id="Fill-21" opacity="0.5908" fill="#EC2760" enable-background="new    " d="M296.419,189.503h-69.286
									c-2.429,0-4.417-1.975-4.417-4.388c0-2.414,1.988-4.389,4.417-4.389h69.286c2.43,0,4.417,1.975,4.417,4.389
									C300.836,187.529,298.848,189.503,296.419,189.503"/>
								<g id="Group-17" transform="translate(112.037037, 111.008357)">
									<path id="Fill-17" fill="#7CC6B7" d="M69.657,8.776H4.417C1.987,8.776,0,6.801,0,4.388C0,1.974,1.987,0,4.417,0h65.24
										c2.43,0,4.417,1.975,4.417,4.389C74.074,6.801,72.087,8.776,69.657,8.776"/>
									<path id="Fill-19" fill="#7CC6B7" d="M177.678,8.776H86.577c-2.429,0-4.416-1.975-4.416-4.388
										C82.161,1.974,84.148,0,86.577,0h91.101c2.429,0,4.417,1.975,4.417,4.389C182.095,6.801,180.106,8.776,177.678,8.776"/>
									<path id="Fill-23" fill="#7CC6B7" d="M36.251,27.728H5.774c-2.429,0-4.416-1.975-4.416-4.388s1.987-4.388,4.416-4.388
										h30.477c2.429,0,4.417,1.975,4.417,4.388S38.68,27.728,36.251,27.728"/>
									<path id="Fill-25" fill="#7CC6B7" d="M94.11,27.728H50.59c-2.43,0-4.417-1.975-4.417-4.388s1.987-4.388,4.417-4.388H94.11
										c2.429,0,4.417,1.975,4.417,4.388S96.539,27.728,94.11,27.728"/>
									<path id="Fill-27" opacity="0.487" fill="#EC2760" enable-background="new    " d="M118.813,27.728H111.7
										c-2.429,0-4.416-1.975-4.416-4.388s1.987-4.388,4.416-4.388h7.113c2.429,0,4.417,1.975,4.417,4.388
										S121.242,27.728,118.813,27.728"/>
								</g>
								<path id="Fill-29" opacity="0.3325" fill="#EC2760" enable-background="new    " d="M227.875,167.843h-43.52
									c-2.43,0-4.417-1.975-4.417-4.388c0-2.414,1.987-4.389,4.417-4.389h43.52c2.43,0,4.417,1.975,4.417,4.389
									C232.292,165.868,230.304,167.843,227.875,167.843"/>
								<path id="Fill-31" fill="#EC2760" d="M168.695,167.843h-1.229c-2.429,0-4.416-1.975-4.416-4.388
									c0-2.414,1.987-4.389,4.416-4.389h1.229c2.43,0,4.417,1.975,4.417,4.389C173.112,165.868,171.125,167.843,168.695,167.843"
									/>
								<path id="Fill-33" fill="#7CC6B7" d="M299.949,167.843h-53.495c-2.986,0-5.429-1.975-5.429-4.388
									c0-2.414,2.443-4.389,5.429-4.389h53.495c2.987,0,5.43,1.975,5.43,4.389C305.379,165.868,302.936,167.843,299.949,167.843"
									/>
								<path id="Fill-35" opacity="0.5072" fill="#EC2760" enable-background="new    " d="M279.968,208.455
									c2.429,0,4.416-1.975,4.416-4.388s-1.987-4.388-4.416-4.388h-1.229c-2.43,0-4.417,1.975-4.417,4.388
									s1.987,4.388,4.417,4.388H279.968z"/>
								<path id="Fill-37" fill="#C400FF" d="M298.429,208.455h43.521c2.429,0,4.417-1.975,4.417-4.388s-1.988-4.388-4.417-4.388
									h-43.521c-2.43,0-4.417,1.975-4.417,4.388S296,208.455,298.429,208.455"/>
								<path id="Fill-39" fill="#EC2760" d="M379.966,230.115h-65.239c-2.43,0-4.417-1.975-4.417-4.388s1.987-4.388,4.417-4.388
									h65.239c2.43,0,4.417,1.975,4.417,4.388S382.395,230.115,379.966,230.115"/>
								<path id="Stroke-41" fill="none" stroke="#FEFEFE" stroke-width="4" d="M315.288,221.566H29.198
									c-2.614,0-4.753-2.132-4.753-4.738V4.739C24.445,2.132,26.584,0,29.198,0h286.09c2.614,0,4.754,2.132,4.754,4.738v212.089
									C320.042,219.434,317.902,221.566,315.288,221.566z"/>
								<path id="Fill-37_1_" fill="#EC2760" d="M298.429,208.455h43.521c2.429,0,4.417-1.975,4.417-4.388s-1.988-4.388-4.417-4.388
									h-43.521c-2.43,0-4.417,1.975-4.417,4.388S296,208.455,298.429,208.455"/>
								<path id="Stroke-43" fill="none" stroke="#FEFEFE" stroke-width="4" d="M24.409,33.562l295.668,0.379"/>
							</g>
							<g id="Page-1_1_" transform="translate(42.777778, 14.214485)">
								<path id="Stroke-1" fill="none" stroke="#FEFEFE" stroke-width="4" d="M6.601,3.291c0,1.817-1.478,3.29-3.3,3.29
									C1.478,6.581,0,5.108,0,3.291S1.478,0,3.301,0C5.123,0,6.601,1.473,6.601,3.291z"/>
								<path id="Stroke-3" fill="none" stroke="#FEFEFE" stroke-width="4" d="M20.974,3.291c0,1.817-1.478,3.29-3.301,3.29
									s-3.301-1.473-3.301-3.29S15.85,0,17.673,0S20.974,1.473,20.974,3.291z"/>
								<path id="Stroke-5_1_" fill="none" stroke="#FEFEFE" stroke-width="4" d="M35.52,3.291c0,1.817-1.478,3.29-3.301,3.29
									s-3.301-1.473-3.301-3.29S30.396,0,32.219,0S35.52,1.473,35.52,3.291z"/>
							</g>
						</g>
					</g>
				</g>
			</g>
		</g>
	</g>
</g>
<polygon fill="none" stroke="#7CC6B7" points="522.127,170.073 522.127,99.047 583.636,134.56 "/>
<polygon fill="none" stroke="#7CC6B7" points="521.931,27.684 521.931,98.709 460.422,63.197 "/>
<polygon fill="none" stroke="#7CC6B7" points="460.331,134.496 521.842,98.984 521.841,170.01 "/>
<polygon fill="none" stroke="#7CC6B7" points="522.166,98.963 583.677,63.449 583.676,134.476 "/>
<polygon fill="none" stroke="#7CC6B7" points="583.668,63.332 522.158,98.845 522.158,27.82 "/>
<polygon fill="none" stroke="#7CC6B7" points="521.832,98.865 460.322,134.379 460.322,63.353 "/>
</svg>
