<?xml version="1.0" encoding="utf-8"?>
<!-- Generator: Adobe Illustrator 12.0.0, SVG Export Plug-In . SVG Version: 6.00 Build 51448)  -->
<!DOCTYPE svg PUBLIC "-//W3C//DTD SVG 1.1//EN" "http://www.w3.org/Graphics/SVG/1.1/DTD/svg11.dtd" [
	<!ENTITY ns_svg "http://www.w3.org/2000/svg">
	<!ENTITY ns_xlink "http://www.w3.org/1999/xlink">
]>
<svg  version="1.1" id="Layer_1" xmlns="&ns_svg;" xmlns:xlink="&ns_xlink;" width="629" height="583" viewBox="0 0 629 583"
	 overflow="visible" enable-background="new 0 0 629 583" xml:space="preserve">
<title>Group 43</title>
<desc>Created with Sketch.</desc>
<g id="Fastlane-HP-Build">
	<g id="Fastlane-Build" transform="translate(-765.000000, -1556.000000)">
		<g id="Screenshots" transform="translate(-57.000000, 1359.000000)">
			<g id="Group-74" transform="translate(170.000000, 137.000000)">
				<g id="Group-43" transform="translate(652.000000, 56.000000)">
					<path id="Path-3" fill="none" stroke="#EC2760" stroke-width="3" d="M246.664,224.679c0,0,126.8-72.702,380.396-218.107
						l-0.162,103.205l-0.521,331.486C373.234,296.874,246.664,224.679,246.664,224.679z"/>
					<g id="Group-28" transform="translate(0.000000, 32.000000)">
						<path id="Fill-1" fill="#69ACD6" d="M465.168,472.942H329.771c-22.424,0-40.771-18.343-40.771-40.763V53.763
							C289,31.343,307.347,13,329.771,13h135.396c22.425,0,40.771,18.343,40.771,40.763v378.416
							C505.938,454.599,487.593,472.942,465.168,472.942"/>
						<polygon id="Fill-7" fill="#EC2760" points="0,358 485,554.166 485,358 						"/>
						<path id="Fill-3" fill="#090A49" d="M452.168,459.942H316.771c-22.424,0-40.771-18.343-40.771-40.763V40.763
							C276,18.343,294.347,0,316.771,0h135.396c22.425,0,40.771,18.343,40.771,40.763v378.416
							C492.938,441.599,474.593,459.942,452.168,459.942"/>
						<path id="Stroke-5" fill="none" stroke="#FFFFFF" stroke-width="4" d="M438.75,462.204H299.871
							c-21.467,0-39.03-17.559-39.03-39.021V41.285c0-21.463,17.563-39.021,39.03-39.021H438.75
							c21.467,0,39.029,17.56,39.029,39.021v381.898C477.779,444.647,460.217,462.204,438.75,462.204z"/>
						<g id="Group-20" transform="translate(271.370784, 53.956899)">
							<path id="Stroke-9" fill="none" stroke="#FEFEFE" stroke-width="4" d="M189.539,361.188H5.914
								c-3.066,0-5.576-2.509-5.576-5.574V6.282c0-3.064,2.51-5.573,5.576-5.573h183.625c3.066,0,5.575,2.509,5.575,5.573v349.332
								C195.114,358.679,192.607,361.188,189.539,361.188z"/>
							<g id="Group-14" transform="translate(28.718368, 244.105116)" opacity="0.5">
								<path id="Rectangle-12" fill="#7CC6B7" d="M4.775,64.737h134.27c2.813,0,5.09,2.279,5.09,5.09l0,0
									c0,2.813-2.277,5.092-5.09,5.092H4.775c-2.811-0.002-5.09-2.279-5.09-5.092l0,0C-0.315,67.016,1.965,64.737,4.775,64.737z"
									/>
								<path id="Rectangle-12_1_" fill="#7CC6B7" d="M5.09,21.813h66.379c2.812,0,5.09,2.278,5.09,5.09l0,0
									c0,2.812-2.278,5.09-5.09,5.09H5.09c-2.813,0-5.09-2.278-5.09-5.09l0,0C0,24.093,2.28,21.813,5.09,21.813z"/>
								<path id="Rectangle-12_2_" fill="#7CC6B7" d="M139.36,21.813H88.872c-2.812,0-5.09,2.278-5.09,5.09l0,0
									c0,2.812,2.278,5.09,5.09,5.09h50.488c2.813,0,5.091-2.278,5.091-5.09l0,0C144.451,24.093,142.171,21.813,139.36,21.813z"/>
								<path id="Rectangle-12_3_" fill="#7CC6B7" d="M5.09,43.628h21.599c2.813,0,5.091,2.278,5.091,5.09l0,0
									c0,2.812-2.278,5.091-5.091,5.091H5.09c-2.813,0-5.09-2.279-5.09-5.091l0,0C0,45.906,2.28,43.628,5.09,43.628z"/>
								<path id="Rectangle-12_4_" fill="#7CC6B7" d="M122.026,43.628H44.091c-2.811,0-5.09,2.278-5.09,5.09l0,0
									c0,2.812,2.279,5.091,5.09,5.091h77.935c2.813,0,5.091-2.279,5.091-5.091l0,0C127.117,45.906,124.837,43.628,122.026,43.628
									z"/>
								<path id="Rectangle-12_5_" fill="#7CC6B7" d="M139.394,43.628L139.394,43.628c2.793,0,5.057,2.264,5.057,5.057v0.067
									c0,2.792-2.264,5.057-5.057,5.057l0,0c-2.792,0-5.056-2.265-5.056-5.057v-0.067
									C134.338,45.89,136.602,43.628,139.394,43.628z"/>
							</g>
							<g id="Group-15" transform="translate(34.462041, 45.949198)">
								
									<g id="Group" transform="translate(69.203311, 63.817288) rotate(-165.000000) translate(-69.203311, -63.817288) translate(11.203311, 13.317288)">
									<path id="Fill-1_1_" fill="#3E3EF8" fill-opacity="0.9" stroke="#7CC6B7" d="M58.495,34.035"/>
								</g>
							</g>
						</g>
						<path id="Stroke-5_1_" fill="none" stroke="#FFFFFF" stroke-width="4" d="M438.75,462.204H299.871
							c-21.467,0-39.03-17.559-39.03-39.021V41.285c0-21.463,17.563-39.021,39.03-39.021H438.75
							c21.467,0,39.029,17.56,39.029,39.021v381.898C477.779,444.647,460.217,462.204,438.75,462.204z"/>
					</g>
				</g>
			</g>
		</g>
	</g>
</g>
<polygon fill="none" stroke="#7CC6B7" points="372.059,246.573 372.058,172.177 436.488,209.375 "/>
<polygon fill="none" stroke="#7CC6B7" points="371.855,97.428 371.855,171.823 307.427,134.626 "/>
<polygon fill="none" stroke="#7CC6B7" points="307.331,209.309 371.76,172.111 371.76,246.507 "/>
<polygon fill="none" stroke="#7CC6B7" points="372.1,172.089 436.529,134.891 436.529,209.287 "/>
<polygon fill="none" stroke="#7CC6B7" points="436.519,134.768 372.093,171.966 372.093,97.571 "/>
<polygon fill="none" stroke="#7CC6B7" points="371.75,171.988 307.322,209.185 307.323,134.79 "/>
<g>
	<polygon fill="#7CC6B7" points="370.357,302.939 370.357,282.471 350.632,291.229 	"/>
	<polygon fill="#7CC6B7" points="370.357,281.064 370.357,257.031 351.267,289.538 	"/>
	<polygon fill="#7CC6B7" points="371.629,257.022 371.629,281.064 390.987,289.658 	"/>
	<polygon fill="#7CC6B7" points="371.629,282.471 371.629,302.939 391.368,291.235 	"/>
	<polygon fill="#7CC6B7" points="370.357,323.518 370.357,307.055 350.764,295.43 	"/>
	<polygon fill="#7CC6B7" points="371.629,323.518 391.221,295.43 371.629,307.055 	"/>
</g>
<g>
	<polygon fill="#7CC6B7" points="313.184,299.509 313.184,284.582 299.269,290.969 	"/>
	<polygon fill="#7CC6B7" points="313.184,283.556 313.184,266.029 299.718,289.737 	"/>
	<polygon fill="#7CC6B7" points="314.081,266.022 314.081,283.556 327.737,289.824 	"/>
	<polygon fill="#7CC6B7" points="314.081,284.582 314.081,299.509 328.006,290.973 	"/>
	<polygon fill="#7CC6B7" points="313.184,314.518 313.184,302.511 299.363,294.032 	"/>
	<polygon fill="#7CC6B7" points="314.081,314.518 327.902,294.032 314.081,302.511 	"/>
</g>
<g>
	<polygon fill="#7CC6B7" points="427.231,305.845 427.231,281.684 403.632,292.022 	"/>
	<polygon fill="#7CC6B7" points="427.231,280.023 427.231,251.654 404.392,290.027 	"/>
	<polygon fill="#7CC6B7" points="428.752,251.642 428.752,280.023 451.912,290.168 	"/>
	<polygon fill="#7CC6B7" points="428.752,281.684 428.752,305.845 452.368,292.029 	"/>
	<polygon fill="#7CC6B7" points="427.231,330.138 427.231,310.704 403.791,296.981 	"/>
	<polygon fill="#7CC6B7" points="428.752,330.138 452.192,296.981 428.752,310.704 	"/>
</g>
</svg>
