<?xml version="1.0" encoding="utf-8"?>
<!-- Generator: Adobe Illustrator 12.0.0, SVG Export Plug-In . SVG Version: 6.00 Build 51448)  -->
<!DOCTYPE svg PUBLIC "-//W3C//DTD SVG 1.1//EN" "http://www.w3.org/Graphics/SVG/1.1/DTD/svg11.dtd" [
	<!ENTITY ns_svg "http://www.w3.org/2000/svg">
	<!ENTITY ns_xlink "http://www.w3.org/1999/xlink">
]>
<svg  version="1.1" id="Layer_1" xmlns="&ns_svg;" xmlns:xlink="&ns_xlink;" width="557.063" height="560.597"
	 viewBox="0 0 557.063 560.597" overflow="visible" enable-background="new 0 0 557.063 560.597" xml:space="preserve">
<g>
	<path fill="#144678" d="M111.107,490.612c63.634-5.402,158.232-59.035,236.065-129.104c-16.375,1.057-33.846,3.296-52.242,6.849
		C181.948,390.176,67.26,461.174,88.605,485.144c0.405,0.382,0.807,0.762,1.21,1.138c1.054,0.906,2.143,1.831,3.27,2.79
		c-1.131-1.019-2.263-2.038-3.392-3.062C94.939,489.328,97.82,490.42,111.107,490.612z"/>
	<path fill="#144678" d="M133.21,518.995c8.482,5.372,13.235,7.999,22.484,12.554c0.902,0.433,1.831,0.87,2.789,1.311
		c-6.685-3.453-11.583-5.987-15.661-8.187C139.56,522.803,136.323,520.886,133.21,518.995z"/>
	<path fill="#144678" d="M116.86,508.281c0.047,0.035,0.098,0.066,0.146,0.102c-4.207-3.233-8.92-6.941-13.611-10.735
		C108.021,501.419,112.667,505.101,116.86,508.281z"/>
	<path fill="#144678" d="M173.329,539.339c4.443,1.851,8.905,3.655,12.776,5.085c-0.157-0.077-0.296-0.157-0.448-0.236
		c-1.477-0.553-3.009-1.141-4.563-1.744C178.584,541.45,175.962,540.405,173.329,539.339z"/>
	<path fill="#144678" d="M485.622,432.291c2.797-20.248-5.934-37.19-23.816-49.498c-23.701,26.17-50.908,50.449-78.939,71.865
		c26.461,4.658,37.965,18.562,30.268,35.189c-1.789,3.866-4.014,7.948-7.113,11.859
		C433.933,482.076,461.669,458.463,485.622,432.291z"/>
	<path fill="#144678" d="M538.319,382.203c2.041-5.207,4.047-10.771,5.963-16.796c1.092-3.563,2.223-7.435,3.441-11.766
		c0.158-0.586,0.318-1.161,0.475-1.76c0.043-0.197,0.088-0.396,0.131-0.595c-0.105,0.411-0.211,0.818-0.318,1.229
		C545.421,361.253,542.444,371.211,538.319,382.203z"/>
	<path fill="#144678" d="M12.348,363.033c0.092,0.282,0.179,0.56,0.273,0.845c-0.098-0.301-0.195-0.604-0.292-0.905
		C12.336,362.993,12.341,363.013,12.348,363.033z"/>
	<path fill="#144678" d="M24.098,394.471c0.925,2.098,1.873,4.205,2.875,6.341c-3.226-7.553-6.57-15.392-9.769-23.875
		C19.493,383.107,21.888,389.147,24.098,394.471z"/>
	<path fill="#144678" d="M46.634,299.871c71.301-17.187,151.087-72.112,202.385-129.278
		c-105.83,20.31-206.308,63.385-240.264,103.118C0.538,283.329,0.2,288.421,0,291.461C1.186,296.483,3.963,308.236,46.634,299.871z"
		/>
	<path fill="#144678" d="M500.884,450.179c0.119-0.154,0.236-0.308,0.355-0.466l1.406-1.91c-0.262,0.352-0.543,0.714-0.813,1.069
		C501.513,449.31,501.204,449.745,500.884,450.179z"/>
	<path fill="#144678" d="M387.493,159.285c-17.104,35.11-46.951,73.479-89.428,112.285c45.844-6.515,91.396-7.352,131.084,0.428
		c23.104-31.713,40.309-64.048,48.43-94.881C451.604,166.582,420.794,160.972,387.493,159.285z"/>
	<path fill="#144678" d="M515.462,428.681c3.807-6.072,6.809-11.479,12.051-21.528c-4.684,8.687-7.559,14.015-10.332,18.741
		C516.624,426.806,516.052,427.732,515.462,428.681z"/>
	<path fill="#144678" d="M534.378,364.557c12.773-24.257,20.955-49.464,22.529-74.817c-0.002,0.174-0.004,0.344-0.006,0.515
		c-0.51,8.603-1.262,19.829-2.879,31.941c1.561-10.16,2.695-21.322,3.041-34.714c-0.73-23.872-6.691-43.864-16.826-60.435
		c-1.961,28.774-11.793,57.482-27.059,85.224C527.042,326.992,534.112,344.735,534.378,364.557z"/>
	<path fill="#144678" d="M403.804,81.005c27.574,4.804,52.809,13.131,74.057,25.702c-5.182-16.333-14.604-31.497-28.996-45.014
		c-3.49-3.279-8.346-7.068-12.541-10.132c-1.234-0.825-2.504-1.661-3.813-2.508c-19.615-11.543-41.49-19.306-64.563-23.969
		C388.675,38.862,400.604,58.031,403.804,81.005z"/>
	<path fill="#144678" d="M60.175,107.121c-2.856,3.61-5.677,7.249-8.037,10.41c-0.627,0.936-1.218,1.816-1.792,2.673
		c1.417-1.997,2.908-4.058,4.402-6.094C56.472,111.863,58.309,109.493,60.175,107.121z"/>
	<path fill="#144678" d="M278.198,26.592c-3.573-1.989-7.383-3.602-11.347-4.889c-33.879,3.61-67.111,11.282-96.776,21.083
		c-1.506,2.552-2.022,5.099-1.335,7.528c-22.447,11.402-37.891,13.32-43.333,9.994C99.975,72.084,79.919,84.979,68.382,96.943
		c-14.701,18.89,3.416,18.405,11.889,17.32c13.646-1.748,27.953-8.063,35.639-11.456c-6.736,8.661-12.999,17.71-18.808,27.065
		c56.041-26.267,131.769-47.039,204.985-52.582C305.132,55.74,298.286,37.776,278.198,26.592z"/>
	<path fill="#144678" d="M32.275,149.83c-0.335,0.659-0.676,1.341-1.017,2.023c3.699-6.856,6.191-11.418,8.623-15.55
		C37.477,140.26,35.23,144.271,32.275,149.83z"/>
	<path fill="#144678" d="M507.972,123.409c-0.955-1.377-1.994-2.864-3.152-4.515c-0.029-0.038-0.055-0.078-0.084-0.117
		c4.789,7.304,8.232,12.553,10.943,16.814C513.097,131.243,510.489,127.087,507.972,123.409z"/>
	<path fill="#144678" d="M19.273,178.005c-1.577,4.069-3.137,8.462-4.433,12.137c-0.479,1.423-0.99,2.958-1.555,4.668
		c3.45-9.579,5.588-15.51,7.381-20.138C20.166,175.841,19.708,176.938,19.273,178.005z"/>
	<path fill="#144678" d="M477.245,85.963c-0.635-0.641-1.301-1.311-2.002-2.015c-0.627-0.621-1.27-1.254-1.932-1.905
		c6.383,6.756,10.797,11.435,14.258,15.235C484.194,93.475,480.515,89.299,477.245,85.963z"/>
	<path fill="#144678" d="M442.345,55.751c-0.963-0.694-1.979-1.418-3.076-2.19c-0.809-0.56-1.643-1.131-2.512-1.711
		c7.816,5.798,13,9.654,17.168,12.922C450.22,61.817,446.079,58.497,442.345,55.751z"/>
	<linearGradient id="XMLID_9_" gradientUnits="userSpaceOnUse" x1="575.9678" y1="326.1621" x2="309.2777" y2="571.7976">
		<stop  offset="0.0061" style="stop-color:#97D3DF"/>
		<stop  offset="0.1394" style="stop-color:#50BED5"/>
		<stop  offset="1" style="stop-color:#1366AC"/>
	</linearGradient>
	<path fill="url(#XMLID_9_)" d="M538.319,380.203c4.125-10.992,7.102-20.95,9.691-29.687c0.107-0.411,0.213-0.818,0.318-1.229
		c1.383-5.337,2.615-10.628,3.484-15.279c0.236-1.264,0.473-2.6,0.709-3.941c0.57-3.331,1.068-6.629,1.5-9.871
		c1.617-12.112,2.369-23.339,2.879-31.941c0.002-0.171,0.004-0.341,0.006-0.515c-1.574,25.354-9.756,50.561-22.529,74.817
		c-12.506,23.739-29.387,46.572-48.756,67.734c-23.953,26.172-51.689,49.785-79.602,69.416
		c-15.918,11.195-31.883,21.089-47.24,29.428c0.156-0.186,0.301-0.356,0.473-0.551c-31.313,17.081-63.896,25.889-95.722,26.922
		c0,0.5,0,1.181,0,2c1.414,0.985,5.396,0.54,8.671,0.88c1.45,0.051,2.896,0.091,4.329,0.122c-0.237,0.014-0.483,0.037-0.719,0.053
		c0.34,0.011,0.68,0.021,1.008,0.035c2.208,0.007,4.642-0.024,7.087-0.074c2.332-0.021,4.658-0.056,6.783-0.122
		c0.357-0.014,0.709-0.028,1.074-0.044c0.199-0.005,0.408-0.012,0.602-0.014c4.025-0.182,9.223-0.583,13.52-0.955
		c0.172-0.021,0.35-0.037,0.525-0.06c0.834-0.063,1.594-0.135,2.316-0.201c3.191-0.338,6.717-0.792,9.555-1.174
		c0.494-0.073,1.02-0.146,1.568-0.226c0.135-0.02,0.266-0.038,0.4-0.06c0.035-0.005,0.063-0.012,0.098-0.014
		c3.035-0.453,6.471-1.015,10.152-1.695c0.402-0.08,0.826-0.164,1.27-0.254c0.352-0.064,0.686-0.12,1.006-0.18
		c2.531-0.491,4.998-0.997,7.234-1.497c0.867-0.198,1.814-0.418,2.934-0.678c0.115-0.027,0.215-0.049,0.326-0.075
		c0.99-0.25,2.049-0.52,3.129-0.797c2.795-0.711,4.844-1.231,6.459-1.651c2.623-0.712,5.111-1.417,7.557-2.16
		c0.59-0.183,1.232-0.382,1.961-0.609c0.736-0.23,1.389-0.432,1.982-0.621c1.701-0.542,3.535-1.152,5.42-1.8
		c0.432-0.153,0.9-0.32,1.402-0.504c0.244-0.082,0.473-0.159,0.697-0.234c2.66-0.938,5.232-1.886,7.713-2.841
		c0.066-0.026,0.127-0.049,0.195-0.075c3.518-1.358,4.867-1.889,8.203-3.339c0.525-0.219,1.012-0.42,1.459-0.605
		c1.908-0.824,3.746-1.637,5.504-2.441c0.35-0.163,0.713-0.329,1.111-0.519l5.756-2.746c35.65-17.66,67.895-43.967,95.912-78.173
		c1.422-1.795,2.791-3.562,4.102-5.286c0.27-0.355,0.551-0.718,0.813-1.069l2.131-2.89c2.232-3.234,4.059-5.916,5.668-8.324
		c1.705-2.615,3.406-5.308,5.018-7.908c0.59-0.948,1.162-1.875,1.719-2.787c2.773-4.727,5.648-10.055,10.332-18.741
		C531.886,396.353,535.39,388.022,538.319,380.203z"/>
	<linearGradient id="XMLID_10_" gradientUnits="userSpaceOnUse" x1="296.8369" y1="590.8115" x2="577.4084" y2="310.24">
		<stop  offset="0" style="stop-color:#66A9D8"/>
		<stop  offset="0.427" style="stop-color:#7FC6B8"/>
	</linearGradient>
	<path fill="url(#XMLID_10_)" d="M538.319,382.203c4.125-10.992,7.102-20.95,9.691-29.687c0.107-0.411,0.213-0.818,0.318-1.229
		c1.383-5.337,2.615-10.628,3.484-15.279c0.236-1.264,0.473-2.6,0.709-3.941c0.57-3.331,1.068-6.629,1.5-9.871
		c1.617-12.112,2.369-23.339,2.879-31.941c0.002-0.171,0.004-0.341,0.006-0.515c-1.574,25.354-9.756,50.561-22.529,74.817
		c-12.506,23.739-29.387,46.572-48.756,67.734c-23.953,26.172-51.689,49.785-79.602,69.416
		c-15.918,11.195-31.883,21.089-47.24,29.428c0.156-0.186,0.301-0.356,0.473-0.551c-31.313,17.081-63.896,25.889-95.722,26.922
		c2.18,1.247,4.305,2.427,8.671,2.88c1.45,0.051,2.896,0.091,4.329,0.122c-0.237,0.014-0.483,0.037-0.719,0.053
		c0.34,0.011,0.68,0.021,1.008,0.035c2.208,0.007,4.642-0.024,7.087-0.074c2.332-0.021,4.658-0.056,6.783-0.122
		c0.357-0.014,0.709-0.028,1.074-0.044c0.199-0.005,0.408-0.012,0.602-0.014c4.025-0.182,9.223-0.583,13.52-0.955
		c0.172-0.021,0.35-0.037,0.525-0.06c0.834-0.063,1.594-0.135,2.316-0.201c3.191-0.338,6.717-0.792,9.555-1.174
		c0.494-0.073,1.02-0.146,1.568-0.226c0.135-0.02,0.266-0.038,0.4-0.06c0.035-0.005,0.063-0.012,0.098-0.014
		c3.035-0.453,6.471-1.015,10.152-1.695c0.402-0.08,0.826-0.164,1.27-0.254c0.352-0.064,0.686-0.12,1.006-0.18
		c2.531-0.491,4.998-0.997,7.234-1.497c0.867-0.198,1.814-0.418,2.934-0.678c0.115-0.027,0.215-0.049,0.326-0.075
		c0.99-0.25,2.049-0.52,3.129-0.797c2.795-0.711,4.844-1.231,6.459-1.651c2.623-0.712,5.111-1.417,7.557-2.16
		c0.59-0.183,1.232-0.382,1.961-0.609c0.736-0.23,1.389-0.432,1.982-0.621c1.701-0.542,3.535-1.152,5.42-1.8
		c0.432-0.153,0.9-0.32,1.402-0.504c0.244-0.082,0.473-0.159,0.697-0.234c2.66-0.938,5.232-1.886,7.713-2.841
		c0.066-0.026,0.127-0.049,0.195-0.075c3.518-1.358,4.867-1.889,8.203-3.339c0.525-0.219,1.012-0.42,1.459-0.605
		c1.908-0.824,3.746-1.637,5.504-2.441c0.35-0.163,0.713-0.329,1.111-0.519l5.756-2.746c35.65-17.66,67.895-43.967,95.912-78.173
		c1.422-1.795,2.791-3.562,4.102-5.286c0.27-0.355,0.551-0.718,0.813-1.069l2.131-2.89c2.232-3.234,4.059-5.916,5.668-8.324
		c1.705-2.615,3.406-5.308,5.018-7.908c0.59-0.948,1.162-1.875,1.719-2.787c2.773-4.727,5.648-10.055,10.332-18.741
		C531.886,398.353,535.39,390.022,538.319,382.203z"/>
	<linearGradient id="XMLID_11_" gradientUnits="userSpaceOnUse" x1="527.1885" y1="146.1943" x2="57.8617" y2="562.8604">
		<stop  offset="0.0061" style="stop-color:#97D3DF"/>
		<stop  offset="0.1394" style="stop-color:#50BED5"/>
		<stop  offset="1" style="stop-color:#1366AC"/>
	</linearGradient>
	<path fill="url(#XMLID_11_)" d="M461.806,380.793c20.24-22.343,37.916-46.059,51.373-70.522
		c15.266-27.741,25.098-56.449,27.059-85.224c1.482-21.753-1.527-43.541-10.09-64.978l-0.207-0.433
		c-3.098-6.377-7.375-14.438-11.168-21.087c-0.93-1.525-1.951-3.155-3.094-4.957c-2.711-4.261-6.154-9.51-10.943-16.814
		c-0.004-0.007-0.008-0.012-0.012-0.019c-2.986-4.096-5.27-7.198-7.404-9.958c-2.195-2.749-4.451-5.463-6.582-7.981
		c-0.977-1.115-2.02-2.278-3.168-3.541c-3.461-3.8-7.875-8.479-14.258-15.235c-0.113-0.122-0.219-0.235-0.338-0.358
		c-3.617-3.47-6.434-6.136-9.025-8.482c-3.029-2.64-6.148-5.241-8.984-7.612c-0.34-0.27-0.686-0.543-1.039-0.819
		c-4.168-3.268-9.352-7.124-17.168-12.922c-0.434-0.323-0.869-0.646-1.322-0.981l-1.225-0.834c0.676,0.479,1.385,0.995,2.113,1.525
		c4.195,3.064,9.051,6.854,12.541,10.132c14.393,13.518,23.814,28.682,28.996,45.014c6.9,21.758,6.252,45.595-0.281,70.41
		c-8.121,30.833-25.326,63.167-48.43,94.881c-22.662,31.105-50.986,61.61-81.977,89.511
		c-77.833,70.069-172.432,123.702-236.065,129.104c-13.287-0.192-16.168-1.284-21.414-4.603c1.129,1.023,2.261,2.043,3.392,3.062
		c0.226,0.199,0.452,0.405,0.678,0.608c3.058,2.585,6.322,5.286,9.633,7.968c4.691,3.794,9.404,7.502,13.611,10.735
		c0.374,0.286,0.77,0.593,1.136,0.876c2.583,1.771,4.83,3.301,6.875,4.667c2.565,1.614,5.313,3.32,8.193,5.069
		c3.113,1.891,6.35,3.808,9.612,5.678c4.077,2.199,8.976,4.733,15.661,8.187c0.668,0.345,1.352,0.696,2.056,1.059
		c1.047,0.472,2.141,0.955,3.268,1.444c2.995,1.302,6.25,2.652,9.522,3.977c2.633,1.066,5.255,2.111,7.766,3.104
		c1.554,0.604,3.086,1.191,4.563,1.744c0.362,0.137,0.706,0.264,1.062,0.397l0.769,0.197c0.6,0.247,1.208,0.504,1.807,0.752
		c34.021,4.809,116.871-32.274,193.572-90.876C410.897,431.242,438.104,406.963,461.806,380.793z"/>
	<linearGradient id="XMLID_12_" gradientUnits="userSpaceOnUse" x1="134.2705" y1="530.5869" x2="528.0728" y2="136.7846">
		<stop  offset="0" style="stop-color:#66A9D8"/>
		<stop  offset="0.427" style="stop-color:#7FC6B8"/>
	</linearGradient>
	<path fill="url(#XMLID_12_)" d="M461.806,382.793c20.24-22.343,37.916-46.059,51.373-70.522
		c15.266-27.741,25.098-56.449,27.059-85.224c1.482-21.753-1.527-43.541-10.09-64.978l-0.207-0.433
		c-3.098-6.377-7.375-14.438-11.168-21.087c-0.93-1.525-1.951-3.155-3.094-4.957c-2.711-4.261-6.154-9.51-10.943-16.814
		c-0.004-0.007-0.008-0.012-0.012-0.019c-2.986-4.096-5.27-7.198-7.404-9.958c-2.195-2.749-4.451-5.463-6.582-7.981
		c-0.977-1.115-2.02-2.278-3.168-3.541c-3.461-3.8-7.875-8.479-14.258-15.235c-0.113-0.122-0.219-0.235-0.338-0.358
		c-3.617-3.47-6.434-6.136-9.025-8.482c-3.029-2.64-6.148-5.241-8.984-7.612c-0.34-0.27-0.686-0.543-1.039-0.819
		c-4.168-3.268-9.352-7.124-17.168-12.922c-0.434-0.323-0.869-0.646-1.322-0.981l-1.225-0.834c0.676,0.479,1.385,0.995,2.113,1.525
		c4.195,3.064,9.051,6.854,12.541,10.132c14.393,13.518,23.814,28.682,28.996,45.014c6.9,21.758,6.252,45.595-0.281,70.41
		c-8.121,30.833-25.326,63.167-48.43,94.881c-22.662,31.105-50.986,61.61-81.977,89.511
		c-77.833,70.069-172.432,123.702-236.065,129.104c-13.287-0.192-16.168-1.284-21.414-4.603c1.129,1.023,2.261,2.043,3.392,3.062
		c0.226,0.199,0.452,0.405,0.678,0.608c3.058,2.585,6.322,5.286,9.633,7.968c4.691,3.794,9.404,7.502,13.611,10.735
		c0.374,0.286,0.77,0.593,1.136,0.876c2.583,1.771,4.83,3.301,6.875,4.667c2.565,1.614,5.313,3.32,8.193,5.069
		c3.113,1.891,6.35,3.808,9.612,5.678c4.077,2.199,8.976,4.733,15.661,8.187c0.668,0.345,1.352,0.696,2.056,1.059
		c1.047,0.472,2.141,0.955,3.268,1.444c2.995,1.302,6.25,2.652,9.522,3.977c2.633,1.066,5.255,2.111,7.766,3.104
		c1.554,0.604,3.086,1.191,4.563,1.744c0.362,0.137,0.706,0.264,1.062,0.397l0.769,0.197c0.6,0.247,1.208,0.504,1.807,0.752
		c34.021,4.809,116.871-32.274,193.572-90.876C410.897,433.242,438.104,408.963,461.806,382.793z"/>
	<linearGradient id="XMLID_13_" gradientUnits="userSpaceOnUse" x1="178.311" y1="57.8584" x2="18.8614" y2="212.2728">
		<stop  offset="0.0061" style="stop-color:#97D3DF"/>
		<stop  offset="0.1394" style="stop-color:#50BED5"/>
		<stop  offset="1" style="stop-color:#1366AC"/>
	</linearGradient>
	<path fill="url(#XMLID_13_)" d="M117.91,101.807c-7.686,3.394-21.992,9.708-35.639,11.456c-8.473,1.085-26.59,1.57-11.889-17.32
		c-2.513,3.012-5.378,6.581-8.207,10.177c-1.866,2.372-3.703,4.743-5.426,6.99c-1.494,2.036-2.985,4.097-4.402,6.094
		c-0.504,0.711-0.994,1.405-1.476,2.094c-3.854,5.661-6.396,9.602-8.989,14.005c-2.432,4.131-4.924,8.693-8.623,15.55
		c-0.587,1.086-1.204,2.228-1.856,3.438c-1.629,3.323-2.908,5.955-4.019,8.329c-1.281,2.793-2.542,5.689-3.783,8.682
		c-0.305,0.759-0.614,1.543-0.934,2.371c-1.793,4.628-3.931,10.559-7.381,20.138c-3.273,15.068,13.513,17.902,49.896,8.425
		c44.364-11.667,76.278-26.691,79.691-66.931C145.804,124.332,145.04,91.068,117.91,101.807z"/>
	<linearGradient id="XMLID_14_" gradientUnits="userSpaceOnUse" x1="21.6611" y1="211.0078" x2="131.7873" y2="100.8817">
		<stop  offset="0" style="stop-color:#66A9D8"/>
		<stop  offset="0.427" style="stop-color:#7FC6B8"/>
	</linearGradient>
	<path fill="url(#XMLID_14_)" d="M115.91,102.807c-7.686,3.394-21.992,9.708-35.639,11.456c-8.473,1.085-26.59,1.57-11.889-17.32
		c-2.513,3.012-5.378,6.581-8.207,10.177c-1.866,2.372-3.703,4.743-5.426,6.99c-1.494,2.036-2.985,4.097-4.402,6.094
		c-0.504,0.711-0.994,1.405-1.476,2.094c-3.854,5.661-6.396,9.602-8.989,14.005c-2.432,4.131-4.924,8.693-8.623,15.55
		c-0.587,1.086-1.204,2.228-1.856,3.438c-1.629,3.323-2.908,5.955-4.019,8.329c-1.281,2.793-2.542,5.689-3.783,8.682
		c-0.305,0.759-0.614,1.543-0.934,2.371c-1.793,4.628-3.931,10.559-7.381,20.138c-3.273,15.068,13.513,17.902,49.896,8.425
		c44.364-11.667,76.278-26.691,79.691-66.931C143.804,125.332,143.04,92.068,115.91,102.807z"/>
	<linearGradient id="XMLID_15_" gradientUnits="userSpaceOnUse" x1="362.8135" y1="11.8696" x2="-3.6903" y2="369.9807">
		<stop  offset="0.0061" style="stop-color:#97D3DF"/>
		<stop  offset="0.1394" style="stop-color:#50BED5"/>
		<stop  offset="1" style="stop-color:#1366AC"/>
	</linearGradient>
	<path fill="url(#XMLID_15_)" d="M387.493,157.285c14.037-28.814,19.496-55.425,16.311-78.28
		c-3.199-22.974-15.129-42.143-35.855-55.922c-18.35-12.201-43.57-20.187-75.748-22.83c-0.307-0.016-0.615-0.03-0.924-0.045
		c0.193,0.005,0.404,0.009,0.594,0.014c-0.213-0.005-0.451-0.011-0.672-0.017c-0.01,0-0.018-0.001-0.025-0.001
		c-3.943-0.115-8.441-0.177-12.964-0.192c-4.781-0.028-9.563-0.005-13.661,0.092c-0.016,0.001-0.029,0.002-0.047,0.003
		c-0.323,0.015-0.628,0.031-0.94,0.045c-0.608,0.031-1.189,0.061-1.741,0.089c-1.713,0.092-3.617,0.204-5.545,0.339
		c-3.683,0.275-7.114,0.661-13.762,1.476c-1.357,0.151-2.685,0.301-3.932,0.447c-0.6,0.085-1.23,0.175-1.912,0.273
		c-0.064,0.011-0.118,0.019-0.184,0.032c-0.082,0.01-0.156,0.021-0.238,0.031c-4.705,0.701-6.927,1.057-11.096,1.902
		c-0.149,0.026-0.295,0.052-0.439,0.078c-3.104,0.64-6.974,1.407-9.944,2.091c-0.06,0.014-0.121,0.027-0.181,0.042
		c-0.149,0.035-0.323,0.077-0.478,0.113c-0.049,0.01-0.089,0.019-0.138,0.029c-1.849,0.433-3.202,0.753-4.459,1.064
		c-1.208,0.31-2.53,0.661-4.235,1.12c-0.37,0.103-0.765,0.214-1.181,0.333c-0.566,0.148-1.085,0.285-1.565,0.414
		c-2.171,0.607-5.049,1.45-8.098,2.398c-0.032,0.011-0.058,0.02-0.089,0.03c-2.191,0.684-4.403,1.397-6.433,2.086
		c-0.647,0.227-1.355,0.479-2.159,0.768c-0.264,0.088-0.516,0.175-0.758,0.257c-3.131,1.122-5.764,2.098-7.948,2.932
		c-0.038,0.016-0.071,0.03-0.107,0.045c-0.096,0.035-0.191,0.071-0.284,0.108c-3.327,1.301-4.751,1.864-7.615,3.108
		c-0.241,0.097-0.472,0.193-0.692,0.285c-2.339,1.031-5.246,2.285-7.464,3.313c-0.005,0.001-0.009,0.003-0.014,0.005
		c-0.007,0.003-0.014,0.005-0.019,0.009c-0.461,0.211-0.967,0.454-1.471,0.693c-0.891,0.421-1.762,0.842-2.619,1.261
		c-0.345,0.167-0.679,0.33-1.018,0.497c-19.627,9.771-30.275,19.439-32.164,24.978c-0.818,2.398-0.151,4.297,1.829,5.508
		c5.442,3.326,20.886,1.408,43.333-9.994c-0.687-2.43-0.171-4.976,1.335-7.528c9.652-16.362,60.089-32.988,96.776-21.083
		c3.964,1.288,7.773,2.9,11.347,4.889c20.088,11.184,26.934,29.148,23.889,50.698c-3.881,27.456-23.847,60.738-53.068,93.302
		c-51.298,57.166-131.084,112.092-202.385,129.278c-42.67,8.365-45.448-3.388-46.634-8.41c0.266,6.091,0.689,11.878,1.238,17.416
		c0.088,0.849,0.175,1.694,0.27,2.567c0.018,0.163,0.035,0.326,0.054,0.49c0.137,1.238,0.283,2.497,0.441,3.787
		c1.379,11.231,4.249,25.557,7.383,37.389c0.939,3.398,1.923,6.679,2.942,9.862c0.098,0.301,0.194,0.604,0.292,0.905
		c1.471,4.538,3.008,8.878,4.582,13.059c3.199,8.483,6.543,16.322,9.769,23.875l1.851,3.82c6.54,8.896,20.559,7.552,35.4,6.124
		c-0.438-1.2-0.849-2.414-1.27-3.621c0.423,1.164,0.847,2.361,1.27,3.621c74.299-12.341,162.013-77.625,216.586-123.97
		c5.977-5.075,11.711-10.15,17.256-15.217C340.542,230.764,370.39,192.395,387.493,157.285z"/>
	<linearGradient id="XMLID_16_" gradientUnits="userSpaceOnUse" x1="-1.2993" y1="374.75" x2="359.4462" y2="14.0044">
		<stop  offset="0" style="stop-color:#66A9D8"/>
		<stop  offset="0.427" style="stop-color:#7FC6B8"/>
	</linearGradient>
	<path fill="url(#XMLID_16_)" d="M387.493,159.285c14.037-28.814,19.496-55.425,16.311-78.28
		c-3.199-22.974-15.129-42.143-35.855-55.922c-18.35-12.201-43.57-20.187-75.748-22.83c-0.307-0.016-0.615-0.03-0.924-0.045
		c0.193,0.005,0.404,0.009,0.594,0.014c-0.213-0.005-0.451-0.011-0.672-0.017c-0.01,0-0.018-0.001-0.025-0.001
		c-3.943-0.115-8.441-0.177-12.964-0.192c-4.781-0.028-9.563-0.005-13.661,0.092c-0.016,0.001-0.029,0.002-0.047,0.003
		c-0.323,0.015-0.628,0.031-0.94,0.045c-0.608,0.031-1.189,0.061-1.741,0.089c-1.713,0.092-3.617,0.204-5.545,0.339
		c-3.683,0.275-7.114,0.661-13.762,1.476c-1.357,0.151-2.685,0.301-3.932,0.447c-0.6,0.085-1.23,0.175-1.912,0.273
		c-0.064,0.011-0.118,0.019-0.184,0.032c-0.082,0.01-0.156,0.021-0.238,0.031c-4.705,0.701-6.927,1.057-11.096,1.902
		c-0.149,0.026-0.295,0.052-0.439,0.078c-3.104,0.64-6.974,1.407-9.944,2.091c-0.06,0.014-0.121,0.027-0.181,0.042
		c-0.149,0.035-0.323,0.077-0.478,0.113c-0.049,0.01-0.089,0.019-0.138,0.029c-1.849,0.433-3.202,0.753-4.459,1.064
		c-1.208,0.31-2.53,0.661-4.235,1.12c-0.37,0.103-0.765,0.214-1.181,0.333c-0.566,0.148-1.085,0.285-1.565,0.414
		c-2.171,0.607-5.049,1.45-8.098,2.398c-0.032,0.011-0.058,0.02-0.089,0.03c-2.191,0.684-4.403,1.397-6.433,2.086
		c-0.647,0.227-1.355,0.479-2.159,0.768c-0.264,0.088-0.516,0.175-0.758,0.257c-3.131,1.122-5.764,2.098-7.948,2.932
		c-0.038,0.016-0.071,0.03-0.107,0.045c-0.096,0.035-0.191,0.071-0.284,0.108c-3.327,1.301-4.751,1.864-7.615,3.108
		c-0.241,0.097-0.472,0.193-0.692,0.285c-2.339,1.031-5.246,2.285-7.464,3.313c-0.005,0.001-0.009,0.003-0.014,0.005
		c-0.007,0.003-0.014,0.005-0.019,0.009c-0.461,0.211-0.967,0.454-1.471,0.693c-0.891,0.421-1.762,0.842-2.619,1.261
		c-0.345,0.167-0.679,0.33-1.018,0.497c-19.627,9.771-30.275,19.439-32.164,24.978c-0.818,2.398-0.151,4.297,1.829,5.508
		c5.442,3.326,20.886,1.408,43.333-9.994c-0.687-2.43-0.171-4.976,1.335-7.528c9.652-16.362,60.089-32.988,96.776-21.083
		c3.964,1.288,7.773,2.9,11.347,4.889c20.088,11.184,26.934,29.148,23.889,50.698c-3.881,27.456-23.847,60.738-53.068,93.302
		c-51.298,57.166-131.084,112.092-202.385,129.278c-42.67,8.365-45.448-3.388-46.634-8.41c0.266,6.091,0.689,11.878,1.238,17.416
		c0.088,0.849,0.175,1.694,0.27,2.567c0.018,0.163,0.035,0.326,0.054,0.49c0.137,1.238,0.283,2.497,0.441,3.787
		c1.379,11.231,4.249,25.557,7.383,37.389c0.939,3.398,1.923,6.679,2.942,9.862c0.098,0.301,0.194,0.604,0.292,0.905
		c1.471,4.538,3.008,8.878,4.582,13.059c3.199,8.483,6.543,16.322,9.769,23.875l1.851,3.82c6.54,8.896,20.559,7.552,35.4,6.124
		c-0.438-1.2-0.849-2.414-1.27-3.621c0.423,1.164,0.847,2.361,1.27,3.621c74.299-12.341,162.013-77.625,216.586-123.97
		c5.977-5.075,11.711-10.15,17.256-15.217C340.542,232.764,370.39,194.395,387.493,159.285z"/>
</g>
</svg>
