<svg xmlns="http://www.w3.org/2000/svg" viewBox="6685 -261 300 160"><defs><style>.a{fill:#0050db;opacity:0;}.b{fill:#fff;}</style></defs><g transform="translate(5417 -494)"><rect class="a" width="300" height="160" transform="translate(1268 233)"/><g transform="translate(-4208 -1120)"><path class="b" d="M2.609,3.92c.07-.862,1.156-.825,1.6-.286C9.271,8.193,14.292,12.8,19.353,17.355c.3.313.724.609.739,1.088.1,1.514.048,3.035.06,4.554a1.733,1.733,0,0,1-.386,1.161c-.955.09-1.552-.724-2.188-1.286q-7.17-6.5-14.328-13a1.462,1.462,0,0,1-.662-1.156C2.6,7.118,2.524,5.514,2.609,3.92Z" transform="translate(5533.432 1410.753)"/><path class="b" d="M133.154,3.536c.3-.251.712-.105,1.065-.118a2.668,2.668,0,0,1,.251,1.12c-.01,5.522.007,11.044-.008,16.566-.008.747-.792,1.09-1.258,1.544-1.113.842-2.023,1.99-3.314,2.567l-.6-.328a8.08,8.08,0,0,1-.1-1.3c.013-5.266-.005-10.533.01-15.8-.085-.672.449-1.143.9-1.542C131.126,5.353,132.081,4.376,133.154,3.536Z" transform="translate(5438.55 1410.647)"/><path class="b" d="M401.641,6.014a12.97,12.97,0,0,1,8.533-2.624,12.365,12.365,0,0,1,8.4,3.64A38.866,38.866,0,0,1,415.5,9.851a8.752,8.752,0,0,0-10.708-.674c-4.091,3-4.261,9.909-.376,13.142a9.105,9.105,0,0,0,11.435-.7c.993,1.035,2,2.065,3.028,3.061A13.774,13.774,0,0,1,400.769,25a12.419,12.419,0,0,1-3.564-9.194A12.426,12.426,0,0,1,401.641,6.014Z" transform="translate(5237.717 1410.651)"/><path class="b" d="M498.707,3.672a13.379,13.379,0,0,1,9.924,1.619,12,12,0,0,1,5.126,8.277A13.248,13.248,0,0,1,510.2,25.136a12,12,0,0,1-8.57,3.086,12.13,12.13,0,0,1-8.545-3.128,12.379,12.379,0,0,1-3.622-8.532,13.325,13.325,0,0,1,3.086-9.322,11.153,11.153,0,0,1,6.159-3.567m1.93,3.84A7.241,7.241,0,0,0,496.318,9.5a8.727,8.727,0,0,0-2.409,6.8,8.017,8.017,0,0,0,3.69,6.805,9.254,9.254,0,0,0,5.75.857,6.861,6.861,0,0,0,5.159-3.757,9.825,9.825,0,0,0-.892-10.147A7.692,7.692,0,0,0,500.637,7.512Z" transform="translate(5168.592 1410.667)"/><path class="b" d="M184.141,5.308q5.745,0,11.493,0a8.951,8.951,0,0,1,6.126,2.055,6.764,6.764,0,0,1,1.687,6.206,5.186,5.186,0,0,1-2.822,3.234,5.879,5.879,0,0,1,3.652,4.692,6.519,6.519,0,0,1-1.988,5.685,10.008,10.008,0,0,1-6.161,1.953c-4,.02-7.994,0-11.992.008.008-7.946-.018-15.889.005-23.835m4.394,4.086q-.008,2.737,0,5.472c2.286.008,4.572,0,6.856.005a4.807,4.807,0,0,0,2.893-.737,2.444,2.444,0,0,0,.321-3.384,3.865,3.865,0,0,0-3.224-1.359q-3.422-.008-6.843,0m-.025,9.485c.045,2.013.018,4.026.015,6.036,2.281.04,4.565.005,6.846.02a5.727,5.727,0,0,0,3.662-1.038,2.493,2.493,0,0,0,.093-3.6,5.427,5.427,0,0,0-4-1.459C192.922,18.866,190.713,18.784,188.51,18.879Z" transform="translate(5397.379 1409.209)"/><path class="b" d="M277.42,5.278c1.481,0,2.963.013,4.447-.008.068,7.946.01,15.892.028,23.84-1.489.013-2.98,0-4.469.008Q277.4,17.2,277.42,5.278Z" transform="translate(5327.477 1409.237)"/><path class="b" d="M310.69,5.324c6.555-.075,13.117-.04,19.674-.015-.008,1.346,0,2.692-.005,4.036-2.534.058-5.071,0-7.608.035.01,6.57-.018,13.142.015,19.714-1.506.055-3.015.025-4.522.015V9.37c-2.517-.023-5.033.038-7.547-.03C310.71,8,310.72,6.663,310.69,5.324Z" transform="translate(5302.543 1409.231)"/><path class="b" d="M600.36,5.311c1.486-.005,2.973,0,4.462,0,.033,7.943.008,15.887.013,23.828-1.489.018-2.978,0-4.467.013C600.345,21.2,600.365,13.257,600.36,5.311Z" transform="translate(5085.485 1409.209)"/><path class="b" d="M636.36,5.229c1.216.005,2.429,0,3.645.005q5.835,7.354,11.643,14.734c.048-4.918.008-9.836.018-14.756,1.5-.008,3-.01,4.5,0q0,11.926,0,23.85c-.945.005-1.89.008-2.835-.005-4.126-5.352-8.319-10.651-12.425-16.017-.115,5.337-.015,10.683-.05,16.022-1.5.005-2.99,0-4.484.008C636.342,21.123,636.365,13.177,636.36,5.229Z" transform="translate(5058.509 1409.286)"/><path class="b" d="M108.918,27a.873.873,0,0,1,1.048.985q.03,9.028.005,18.06c.023.682-.677,1.033-1.1,1.446a26,26,0,0,1-2.7,2.168.739.739,0,0,1-.975-.855q0-9.035.005-18.073c-.01-1.123,1.123-1.682,1.807-2.394C107.612,27.87,108.073,27.023,108.918,27Z" transform="translate(5456.542 1392.974)"/><path class="b" d="M10.921,45.167c.594-.223,1.093.246,1.5.6,4.382,3.9,8.8,7.76,13.182,11.656.754.684.351,1.815.439,2.707-.11.93.253,2.018-.361,2.82a1.265,1.265,0,0,1-1.439-.441c-4.131-3.64-8.242-7.3-12.375-10.941-.464-.464-1.1-.83-1.359-1.451-.07-1.258-.015-2.522-.043-3.78C10.475,45.934,10.5,45.357,10.921,45.167Z" transform="translate(5527.51 1379.384)"/><path class="b" d="M82.626,47.373c.461-.406,1.5-.281,1.4.5.043,6.6-.008,13.2.025,19.807a4.736,4.736,0,0,1-.12,1.574c-.672.667-1.434,1.238-2.141,1.87a10.773,10.773,0,0,1-2.228,1.672l-.6-.281a3.868,3.868,0,0,1-.208-1.359c.015-6.434-.008-12.866.01-19.3a2.562,2.562,0,0,1,1.11-1.933C80.823,49.1,81.683,48.19,82.626,47.373Z" transform="translate(5476.343 1377.857)"/><path class="b" d="M17.024,82.141a1.214,1.214,0,0,1,1.246.343q5.786,5,11.575,9.991a2.227,2.227,0,0,1,.79,1.862c-.018,1.381.1,2.77-.043,4.146-.11.734-1.075.679-1.481.236Q23.749,94.189,18.4,89.631c-.6-.574-1.431-.988-1.772-1.775-.068-1.506-.023-3.018-.043-4.527C16.6,82.926,16.613,82.344,17.024,82.141Z" transform="translate(5522.925 1351.684)"/><path class="b" d="M184.268,117.14l.847.045c1.115,1.742,2.289,3.447,3.381,5.2,1.256-1.664,2.3-3.479,3.457-5.216.226-.005.679-.02.9-.028.018,3.048.008,6.1.005,9.144l-.7-.033c-.025-2.7.058-5.394-.043-8.089-.935,1.589-2.008,3.091-2.985,4.655a2.755,2.755,0,0,1-.647.747c-1.2-1.742-2.231-3.622-3.572-5.256-.04,2.647-.025,5.3-.01,7.946l-.644.02C184.273,123.231,184.255,120.186,184.268,117.14Z" transform="translate(5397.283 1325.408)"/><path class="b" d="M266.281,117.25q.451,0,.9.008c1.283,3.063,2.767,6.041,4.011,9.117l-.732-.058c-.358-.724-.672-1.471-.988-2.213-1.842-.013-3.682-.038-5.522.013-.308.747-.594,1.509-.975,2.223-.183.005-.546.02-.727.025,1.283-3.063,2.735-6.056,4.031-9.114m-2.013,6.136c1.632.018,3.269.08,4.9-.03-.852-1.82-1.627-3.675-2.459-5.5Q265.529,120.636,264.268,123.386Z" transform="translate(5338.842 1325.326)"/><path class="b" d="M339.518,118.005a5.011,5.011,0,0,1,7.061-.2c-.108.11-.318.331-.426.441a4.573,4.573,0,0,0-4.87-.757c-2.431,1.133-2.848,4.828-.965,6.637a4.35,4.35,0,0,0,5.66.038c0-.875,0-1.75-.01-2.622-1.068,0-2.133.005-3.2-.008,0-.148,0-.439,0-.587,1.286-.005,2.572,0,3.86-.005.035,1.148.01,2.3.028,3.444a5.132,5.132,0,0,1-2.925,1.471H342.47a4.727,4.727,0,0,1-2.953-7.858Z" transform="translate(5281.74 1325.924)"/><path class="b" d="M418.273,117.206c.358.053.938-.2,1.025.313,1.281,2.945,2.7,5.835,3.893,8.816-.183-.018-.551-.05-.734-.065-.351-.729-.664-1.476-.99-2.218-1.835-.01-3.667-.023-5.5.008-.323.749-.6,1.519-.99,2.236l-.737.018c1.308-3.051,2.75-6.046,4.033-9.106m-2,6.146c1.632.015,3.264.023,4.893-.005-.832-1.832-1.6-3.695-2.461-5.515Q417.519,120.6,416.275,123.353Z" transform="translate(5224.95 1325.372)"/><path class="b" d="M493.524,117.189c2.246.015,4.5-.063,6.743.043q-2.982,4.177-5.983,8.334c1.963.025,3.925.013,5.885.005-.023.278-.045.556-.063.835h-6.74a.858.858,0,0,1,.175-.89q2.741-3.865,5.484-7.728c-1.827-.025-3.652-.01-5.474-.01C493.544,117.63,493.532,117.335,493.524,117.189Z" transform="translate(5165.699 1325.382)"/><path class="b" d="M565.147,117.175c.153,0,.461,0,.617-.005.023,3.046.005,6.089.008,9.134-.156,0-.469-.008-.624-.008Q565.147,121.736,565.147,117.175Z" transform="translate(5111.87 1325.386)"/><path class="b" d="M615.242,125.777c.038-3.106-.108-6.219.075-9.317,2.2,2.461,4.2,5.108,6.307,7.653.037-2.482,0-4.966.02-7.447.178-.008.534-.028.712-.035-.015,3.078.05,6.161-.037,9.239H622.2c-2.158-2.479-4.091-5.154-6.309-7.58-.04,2.492-.007,4.983-.018,7.472C615.72,125.767,615.4,125.775,615.242,125.777Z" transform="translate(5074.346 1325.918)"/><path class="b" d="M691.206,117.2c2.093.005,4.189,0,6.282,0,.008.148.018.444.023.592-1.89.03-3.78,0-5.667.018q0,1.763,0,3.524c1.795.028,3.592.005,5.389.015.005.165.013.5.018.669-1.8.005-3.607-.01-5.407.01q0,1.782,0,3.569c1.915.008,3.83.01,5.748,0q-.038.414-.06.827h-6.249C691.105,123.356,691.248,120.273,691.206,117.2Z" transform="translate(5017.419 1325.363)"/></g></g></svg>